<svg width="0" height="0" class="hidden">
  <symbol fill="inherit" xmlns="http://www.w3.org/2000/svg" viewBox="0 0 24 24" id="calculator-money" >
    <path d="m5.5,10c-3.084,0-5.5,1.318-5.5,3v8c0,1.682,2.416,3,5.5,3s5.5-1.318,5.5-3v-8c0-1.682-2.416-3-5.5-3Zm4.5,7c0,.946-1.848,2-4.5,2s-4.5-1.054-4.5-2v-2.254c.987.764,2.62,1.254,4.5,1.254s3.513-.49,4.5-1.254v2.254Zm-4.5-6c2.652,0,4.5,1.054,4.5,2s-1.848,2-4.5,2-4.5-1.054-4.5-2,1.848-2,4.5-2Zm0,12c-2.652,0-4.5-1.054-4.5-2v-2.254c.987.764,2.62,1.254,4.5,1.254s3.513-.49,4.5-1.254v2.254c0,.946-1.848,2-4.5,2ZM20,5.5c0-.827-.673-1.5-1.5-1.5h-9c-.827,0-1.5.673-1.5,1.5v2c0,.827.673,1.5,1.5,1.5h9c.827,0,1.5-.673,1.5-1.5v-2Zm-1,2c0,.276-.225.5-.5.5h-9c-.275,0-.5-.224-.5-.5v-2c0-.276.225-.5.5-.5h9c.275,0,.5.224.5.5v2Zm1,5c0,.276-.224.5-.5.5s-.5-.224-.5-.5v-1c0-.276.224-.5.5-.5s.5.224.5.5v1Zm-4,0v-1c0-.276.224-.5.5-.5s.5.224.5.5v1c0,.276-.224.5-.5.5s-.5-.224-.5-.5Zm-3,0v-1c0-.276.224-.5.5-.5s.5.224.5.5v1c0,.276-.224.5-.5.5s-.5-.224-.5-.5Zm0,3c0-.276.224-.5.5-.5s.5.224.5.5v1c0,.276-.224.5-.5.5s-.5-.224-.5-.5v-1Zm3,0c0-.276.224-.5.5-.5s.5.224.5.5v1c0,.276-.224.5-.5.5s-.5-.224-.5-.5v-1Zm4,1c0,.276-.224.5-.5.5s-.5-.224-.5-.5v-1c0-.276.224-.5.5-.5s.5.224.5.5v1Zm-7,3c0-.276.224-.5.5-.5h6c.276,0,.5.224.5.5s-.224.5-.5.5h-6c-.276,0-.5-.224-.5-.5Zm11-15v15c0,2.481-2.019,4.5-4.5,4.5h-7c-.276,0-.5-.224-.5-.5s.224-.5.5-.5h7c1.93,0,3.5-1.57,3.5-3.5V4.5c0-1.93-1.57-3.5-3.5-3.5h-11c-1.93,0-3.5,1.57-3.5,3.5v3c0,.276-.224.5-.5.5s-.5-.224-.5-.5v-3C4,2.019,6.019,0,8.5,0h11c2.481,0,4.5,2.019,4.5,4.5Z"/>
  </symbol>
  <symbol xmlns="http://www.w3.org/2000/svg"  fill="inherit" viewBox="0 0 24 24" id="cogwheel">
    <path d="m22.676,16.014c-.178-.644-.597-1.18-1.177-1.509l-.749-.423c.166-.692.25-1.391.25-2.082s-.084-1.39-.25-2.082l.748-.424c1.199-.68,1.623-2.208.943-3.406-.329-.582-.864-1-1.508-1.179-.643-.175-1.318-.095-1.899.234l-.751.426c-1.064-1.041-2.359-1.796-3.784-2.208v-.861c0-1.379-1.122-2.5-2.5-2.5s-2.5,1.121-2.5,2.5v.861c-1.425.412-2.72,1.167-3.784,2.208l-.75-.425c-.581-.33-1.254-.41-1.899-.235-.644.179-1.179.597-1.508,1.179-.679,1.198-.256,2.727.943,3.406l.748.424c-.166.692-.25,1.391-.25,2.082s.084,1.39.25,2.082l-.748.423c-.581.329-1,.865-1.178,1.509-.178.644-.095,1.317.234,1.898.329.582.864,1,1.508,1.179.644.176,1.317.096,1.899-.234l.751-.426c1.064,1.041,2.359,1.796,3.784,2.208v.861c0,1.379,1.122,2.5,2.5,2.5s2.5-1.121,2.5-2.5v-.861c1.425-.412,2.72-1.167,3.784-2.208l.75.425c.582.331,1.255.412,1.899.235.644-.179,1.179-.597,1.508-1.179.329-.581.412-1.255.234-1.898Zm-1.104,1.406c-.197.349-.519.6-.905.707-.386.105-.791.057-1.14-.142l-1.085-.614c-.199-.11-.452-.074-.611.094-1.07,1.141-2.435,1.937-3.949,2.303-.224.055-.382.256-.382.486v1.246c0,.827-.673,1.5-1.5,1.5s-1.5-.673-1.5-1.5v-1.246c0-.23-.158-.432-.382-.486-1.514-.366-2.879-1.162-3.949-2.303-.097-.104-.23-.158-.365-.158-.084,0-.169.021-.246.064l-1.086.615c-.349.197-.753.246-1.139.141-.386-.107-.708-.358-.905-.707-.407-.72-.153-1.637.566-2.044l1.083-.613c.201-.114.297-.351.234-.572-.207-.728-.312-1.464-.312-2.19s.105-1.463.312-2.19c.063-.222-.034-.458-.234-.571l-1.083-.613c-.72-.408-.974-1.325-.566-2.045.197-.349.519-.6.905-.707.386-.105.791-.057,1.14.142l1.085.614c.201.112.454.075.611-.094,1.069-1.141,2.435-1.937,3.949-2.303.224-.055.382-.256.382-.486v-1.246c0-.827.673-1.5,1.5-1.5s1.5.673,1.5,1.5v1.246c0,.23.158.432.382.486,1.514.366,2.879,1.162,3.949,2.303.158.168.411.204.611.094l1.086-.615c.349-.197.753-.246,1.139-.141.386.107.708.358.905.707.408.72.153,1.637-.566,2.045l-1.083.613c-.201.113-.297.35-.234.571.207.728.312,1.464.312,2.19s-.105,1.463-.312,2.19c-.063.222.034.458.234.572l1.083.613c.348.197.599.519.706.904s.057.791-.141,1.14Zm-13.065-5.349l-.007-4.572c0-.275-.224-.499-.5-.499h0c-.276,0-.5.225-.499.501l.007,4.57c-.86.224-1.499,1-1.499,1.929s.638,1.703,1.497,1.928l-.004.568c-.002.276.22.502.496.504h.004c.274,0,.498-.222.5-.496l.004-.574c.862-.223,1.503-1,1.503-1.93s-.64-1.706-1.501-1.929Zm-.499,2.929c-.551,0-1-.448-1-1s.449-1,1-1,1,.448,1,1-.449,1-1,1Zm8.499-2.929l-.007-4.572c0-.275-.224-.499-.5-.499h0c-.276,0-.5.225-.499.501l.007,4.57c-.86.224-1.499,1-1.499,1.929s.638,1.703,1.497,1.928l-.004.568c-.002.276.22.502.496.504h.004c.274,0,.498-.222.5-.496l.004-.574c.862-.223,1.503-1,1.503-1.93s-.64-1.706-1.501-1.929Zm-.499,2.929c-.551,0-1-.448-1-1s.449-1,1-1,1,.448,1,1-.449,1-1,1Zm-3.503-6.93l-.004-.574c-.002-.274-.226-.496-.5-.496h-.004c-.276.002-.498.228-.496.504l.004.568c-.859.225-1.497,1-1.497,1.928s.639,1.705,1.499,1.929l-.007,4.57c0,.276.223.501.499.501h0c.276,0,.5-.224.5-.499l.007-4.572c.861-.223,1.501-1,1.501-1.929s-.641-1.707-1.503-1.93Zm-.497,2.93c-.551,0-1-.448-1-1s.449-1,1-1,1,.448,1,1-.449,1-1,1Z"/>
  </symbol>
  <symbol xmlns="http://www.w3.org/2000/svg" fill="inherit" viewBox="0 0 24 24"  id="fee">
    <path d="m22.416,14.777l-6,9c-.097.145-.255.223-.416.223-.096,0-.192-.027-.277-.084-.229-.153-.292-.464-.139-.693l6-9c.154-.23.465-.291.693-.139.229.153.292.464.139.693Zm1.584,7.223c0,1.103-.897,2-2,2s-2-.897-2-2,.897-2,2-2,2,.897,2,2Zm-1,0c0-.552-.448-1-1-1s-1,.448-1,1,.448,1,1,1,1-.448,1-1Zm-7-4c-1.103,0-2-.897-2-2s.897-2,2-2,2,.897,2,2-.897,2-2,2Zm0-1c.552,0,1-.448,1-1s-.448-1-1-1-1,.448-1,1,.448,1,1,1ZM4,5c-.552,0-1,.448-1,1s.448,1,1,1,1-.448,1-1-.448-1-1-1Zm17,1c0-.552-.448-1-1-1s-1,.448-1,1,.448,1,1,1,1-.448,1-1ZM4,13c-.552,0-1,.448-1,1s.448,1,1,1,1-.448,1-1-.448-1-1-1ZM19.5,2H4.5C2.019,2,0,4.019,0,6.5v7c0,2.481,2.019,4.5,4.5,4.5h7c.276,0,.5-.224.5-.5s-.224-.5-.5-.5h-7c-1.93,0-3.5-1.57-3.5-3.5v-7c0-1.93,1.57-3.5,3.5-3.5h15c1.93,0,3.5,1.57,3.5,3.5v5c0,.276.224.5.5.5s.5-.224.5-.5v-5c0-2.481-2.019-4.5-4.5-4.5Zm-7.5,12c-2.206,0-4-1.794-4-4s1.794-4,4-4,4,1.794,4,4-1.794,4-4,4Zm3-4c0-1.654-1.346-3-3-3s-3,1.346-3,3,1.346,3,3,3,3-1.346,3-3Z"/>
  </symbol>
  <symbol xmlns="http://www.w3.org/2000/svg" fill="inherit" id="meeting" data-name="meeting" viewBox="0 0 24 24">
    <path d="m9.499,24c.02,0-.02.002,0,0h0Zm9.501-13c1.654,0,3,1.346,3,3s-1.346,3-3,3-3-1.346-3-3,1.346-3,3-3Zm-2,3c0,1.103.897,2,2,2s2-.897,2-2-.897-2-2-2-2,.897-2,2Zm-15,0c0-1.654,1.346-3,3-3s3,1.346,3,3-1.346,3-3,3-3-1.346-3-3Zm1,0c0,1.103.897,2,2,2s2-.897,2-2-.897-2-2-2-2,.897-2,2Zm2,5C2.438,19,.291,20.91.003,23.444c-.031.274.166.522.44.553.267.032.522-.165.554-.44.229-2.027,1.951-3.556,4.003-3.556s3.773,1.529,4.003,3.556c.029.255.245.444.496.444.274-.031.529-.282.498-.556-.288-2.534-2.436-4.444-4.997-4.444Zm18.5,5c-.02.002.02,0,0,0h0Zm.497-.556c-.288-2.534-2.436-4.444-4.997-4.444s-4.709,1.91-4.997,4.444c-.031.274.166.522.44.553.272.032.521-.165.554-.44.229-2.027,1.951-3.556,4.003-3.556s3.773,1.529,4.003,3.556c.029.255.246.444.497.444.274-.031.528-.282.497-.556Zm-9.303-14.444l-2.02,1.746c-.19.169-.432.254-.673.254-.243,0-.487-.086-.682-.259l-1.977-1.741h-.344c-1.654,0-3-1.346-3-3v-3c0-1.654,1.346-3,3-3h6c1.654,0,3,1.346,3,3v3c0,1.654-1.346,3-3,3h-.306Zm-.187-1h.492c1.103,0,2-.897,2-2v-3c0-1.103-.897-2-2-2h-6c-1.103,0-2,.897-2,2v3c0,1.103.897,2,2,2h.532c.122,0,.239.044.33.125l2.12,1.868,2.198-1.871c.091-.078.207-.122.327-.122Z"/>
  </symbol>
  <symbol xmlns="http://www.w3.org/2000/svg" fill="inherit" id="padlock-check" data-name="padlock-check" viewBox="0 0 24 24">
    <path d="m17.5,11c-3.584,0-6.5,2.916-6.5,6.5s2.916,6.5,6.5,6.5,6.5-2.916,6.5-6.5-2.916-6.5-6.5-6.5Zm0,12c-3.033,0-5.5-2.468-5.5-5.5s2.467-5.5,5.5-5.5,5.5,2.468,5.5,5.5-2.467,5.5-5.5,5.5Zm2.94-7.451l.701.713-3.457,3.399c-.217.218-.51.339-.822.339s-.604-.121-.825-.342l-1.851-1.794.696-.719,1.856,1.8c.062.062.186.062.241.006l3.46-3.402ZM2.5,23c-.827,0-1.5-.673-1.5-1.5v-12.5h18v-1h-3v-1.5c0-3.584-2.916-6.5-6.5-6.5S3,2.916,3,6.5v1.5H0v13.5c0,1.379,1.122,2.5,2.5,2.5h8.849c-.376-.304-.722-.641-1.045-1H2.5Zm1.5-16.5c0-3.033,2.467-5.5,5.5-5.5s5.5,2.467,5.5,5.5v1.5H4v-1.5Zm5,11.5v-4h1v4h-1Z"/>
  </symbol>
  <symbol xmlns="http://www.w3.org/2000/svg" fill="inherit" id="payment-pos" data-name="payment-pos" viewBox="0 0 24 24">
    <path d="m19.416,16.601l-2.639,2.746-.721-.693,2.616-2.721c.453-.541.439-1.384-.055-1.935-.267-.298-.634-.475-1.032-.496-.395-.011-.782.113-1.08.38l-3.493,3.531c-.653.66-1.013,1.534-1.013,2.462v4.125h-1v-4.125c0-1.192.462-2.316,1.302-3.165l3.515-3.552c.52-.467,1.158-.696,1.824-.654.666.036,1.277.33,1.722.826.824.919.848,2.325.054,3.271ZM1,2.5c0-.827.673-1.5,1.5-1.5h9.642c.092-.356.233-.69.414-1H2.5C1.121,0,0,1.121,0,2.5v21.5h9v-1H1V2.5Zm11,2.5v-1H4v4h8v-1h-7v-2h7Zm-6,5h-2v1h2v-1Zm0,3h-2v1h2v-1Zm2-2h2v-1h-2v1Zm0,3h2v-1h-2v1Zm-2,2h-2v1h2v-1Zm2,1h2v-1h-2v1Zm-4,3h2v-1h-2v1Zm4,0h2v-1h-2v1ZM22,0h-6c-1.105,0-2,.895-2,2v10c0,.048.011.093.014.141l.465-.47c.164-.147.343-.265.521-.386V2c0-.552.448-1,1-1h6c.552,0,1,.448,1,1v10c0,.552-.448,1-1,1h-.489c.159.322.284.655.362,1h.127c1.105,0,2-.895,2-2V2c0-1.105-.895-2-2-2Zm1,19.231c0,.371-.137.729-.386,1.005l-3.365,3.764h1.354l2.747-3.087c.422-.468.65-1.063.65-1.682v-3.788c-.31.181-.644.322-1,.414v3.373Z"/>
  </symbol>
  <symbol xmlns="http://www.w3.org/2000/svg" fill="inherit" id="stats" data-name="stats" viewBox="0 0 24 24">
    <path d="m24,23.5c0,.276-.224.5-.5.5H4.5c-2.481,0-4.5-2.019-4.5-4.5V.5C0,.224.224,0,.5,0s.5.224.5.5v19c0,1.93,1.57,3.5,3.5,3.5h19c.276,0,.5.224.5.5Zm-5.5-3.5c.276,0,.5-.224.5-.5V6.5c0-.276-.224-.5-.5-.5s-.5.224-.5.5v13c0,.276.224.5.5.5Zm-4,0c.276,0,.5-.224.5-.5v-8c0-.276-.224-.5-.5-.5s-.5.224-.5.5v8c0,.276.224.5.5.5Zm-4,0c.276,0,.5-.224.5-.5V6.5c0-.276-.224-.5-.5-.5s-.5.224-.5.5v13c0,.276.224.5.5.5Zm-4,0c.276,0,.5-.224.5-.5v-8c0-.276-.224-.5-.5-.5s-.5.224-.5.5v8c0,.276.224.5.5.5Z"/>
  </symbol>
  <symbol xmlns="http://www.w3.org/2000/svg" fill="inherit" id="user-headset" data-name="user-headset" viewBox="0 0 24 24">
    <path d="m21,21v3h-1v-3c0-1.654-1.346-3-3-3H7c-1.654,0-3,1.346-3,3v3h-1v-3c0-2.206,1.794-4,4-4h10c2.206,0,4,1.794,4,4ZM4,9h-1c0-2.562,1.098-5.011,3.011-6.719C7.923.577,10.491-.229,13.06.061c3.997.458,7.299,3.676,7.851,7.652.216,1.556.034,3.134-.525,4.565-.638,1.628-2.301,2.722-4.137,2.722h-4.248c-1.103,0-2-.897-2-2s.897-2,2-2,2,.897,2,2c0,.364-.098.706-.269,1h2.517c1.429,0,2.717-.839,3.205-2.087.498-1.271.659-2.677.467-4.063-.49-3.531-3.424-6.389-6.974-6.795-2.319-.266-4.545.436-6.27,1.974-1.701,1.518-2.677,3.694-2.677,5.972Zm8,5c.551,0,1-.448,1-1s-.449-1-1-1-1,.448-1,1,.449,1,1,1Zm0-10c2.757,0,5,2.243,5,5,0,1.133-.401,2.161-1.04,3h1.227c.515-.883.814-1.906.814-3,0-3.309-2.691-6-6-6s-6,2.691-6,6c0,1.796.797,3.405,2.051,4.506-.021-.167-.051-.333-.051-.506,0-.31.043-.608.11-.898-.684-.855-1.11-1.925-1.11-3.102,0-2.757,2.243-5,5-5Z"/>
  </symbol>
  <symbol xmlns="http://www.w3.org/2000/svg" fill="inherit" id="map" data-name="map" viewBox="0 0 24 24" >
  <path d="M12,24c-1.358,0-2.641-.521-3.612-1.467l-4.151-3.818c-2.093-2.083-3.237-4.834-3.237-7.761s1.144-5.678,3.222-7.747C6.3,1.139,9.062,0,12,0s5.7,1.139,7.777,3.208c2.078,2.069,3.223,4.821,3.223,7.747s-1.145,5.678-3.223,7.747l-4.176,3.842c-.96,.936-2.243,1.457-3.602,1.457Zm0-23c-2.672,0-5.183,1.036-7.072,2.917-1.889,1.88-2.928,4.379-2.928,7.038s1.04,5.158,2.928,7.038l4.147,3.814c1.587,1.546,4.273,1.536,5.838,.01l4.172-3.838c1.874-1.866,2.914-4.366,2.914-7.024s-1.04-5.158-2.929-7.038c-1.889-1.881-4.4-2.917-7.071-2.917Zm4.354,11.197c.195-.195,.195-.512,0-.707s-.512-.195-.707,0c-.974,.974-2.269,1.51-3.646,1.51s-2.672-.536-3.646-1.51c-.195-.195-.512-.195-.707,0s-.195,.512,0,.707c1.163,1.163,2.709,1.803,4.354,1.803s3.191-.641,4.354-1.803Zm-7.353-5.197c-.552,0-1,.448-1,1s.448,1,1,1,1-.448,1-1-.448-1-1-1Zm6,0c-.552,0-1,.448-1,1s.448,1,1,1,1-.448,1-1-.448-1-1-1Z"/>
  </symbol>   
  <svg xmlns="http://www.w3.org/2000/svg"  viewBox="0 0 50 50" id="whatsapp" data-name="whatsapp" >
    <path d="M25,2C12.318,2,2,12.318,2,25c0,3.96,1.023,7.854,2.963,11.29L2.037,46.73c-0.096,0.343-0.003,0.711,0.245,0.966 C2.473,47.893,2.733,48,3,48c0.08,0,0.161-0.01,0.24-0.029l10.896-2.699C17.463,47.058,21.21,48,25,48c12.682,0,23-10.318,23-23 S37.682,2,25,2z M36.57,33.116c-0.492,1.362-2.852,2.605-3.986,2.772c-1.018,0.149-2.306,0.213-3.72-0.231 c-0.857-0.27-1.957-0.628-3.366-1.229c-5.923-2.526-9.791-8.415-10.087-8.804C15.116,25.235,13,22.463,13,19.594 s1.525-4.28,2.067-4.864c0.542-0.584,1.181-0.73,1.575-0.73s0.787,0.005,1.132,0.021c0.363,0.018,0.85-0.137,1.329,1.001 c0.492,1.168,1.673,4.037,1.819,4.33c0.148,0.292,0.246,0.633,0.05,1.022c-0.196,0.389-0.294,0.632-0.59,0.973 s-0.62,0.76-0.886,1.022c-0.296,0.291-0.603,0.606-0.259,1.19c0.344,0.584,1.529,2.493,3.285,4.039 c2.255,1.986,4.158,2.602,4.748,2.894c0.59,0.292,0.935,0.243,1.279-0.146c0.344-0.39,1.476-1.703,1.869-2.286 s0.787-0.487,1.329-0.292c0.542,0.194,3.445,1.604,4.035,1.896c0.59,0.292,0.984,0.438,1.132,0.681 C37.062,30.587,37.062,31.755,36.57,33.116z"></path>
  </svg>
  <symbol xmlns="http://www.w3.org/2000/svg" fill="inherit"  id="telegram" data-name="telegram" viewBox="0 0 50 50" >
    <path d="M25,2c12.703,0,23,10.297,23,23S37.703,48,25,48S2,37.703,2,25S12.297,2,25,2z M32.934,34.375	c0.423-1.298,2.405-14.234,2.65-16.783c0.074-0.772-0.17-1.285-0.648-1.514c-0.578-0.278-1.434-0.139-2.427,0.219	c-1.362,0.491-18.774,7.884-19.78,8.312c-0.954,0.405-1.856,0.847-1.856,1.487c0,0.45,0.267,0.703,1.003,0.966	c0.766,0.273,2.695,0.858,3.834,1.172c1.097,0.303,2.346,0.04,3.046-0.395c0.742-0.461,9.305-6.191,9.92-6.693	c0.614-0.502,1.104,0.141,0.602,0.644c-0.502,0.502-6.38,6.207-7.155,6.997c-0.941,0.959-0.273,1.953,0.358,2.351	c0.721,0.454,5.906,3.932,6.687,4.49c0.781,0.558,1.573,0.811,2.298,0.811C32.191,36.439,32.573,35.484,32.934,34.375z"></path>
  </symbol>
  <symbol xmlns="http://www.w3.org/2000/svg" fill="inherit" id="map-logo" data-name="map-logo" viewBox="0 0 24 24">
  <path d="m18.279,13.447l-6.28,6.251-6.278-6.25L.057,16.846l11.943,7.166,11.943-7.166-5.665-3.399Zm-1.329-11.397c-1.321-1.322-3.079-2.05-4.949-2.05s-3.628.728-4.95,2.05c-2.729,2.729-2.729,7.17.008,9.907l4.942,4.833,4.949-4.841c1.322-1.322,2.051-3.08,2.051-4.95s-.729-3.627-2.051-4.95Zm-4.949,7.94c-1.657,0-3-1.343-3-3s1.343-3,3-3,3,1.343,3,3-1.343,3-3,3Z"/>
</symbol>
<symbol fill="inherit" viewBox="-52.01 0 560.035 560.035" xmlns="http://www.w3.org/2000/svg" id="app-store">
<path d="M380.844 297.529c.787 84.752 74.349 112.955 75.164 113.314-.622 1.988-11.754 40.191-38.756 79.652-23.343 34.117-47.568 68.107-85.731 68.811-37.499.691-49.557-22.236-92.429-22.236-42.859 0-56.256 21.533-91.753 22.928-36.837 1.395-64.889-36.891-88.424-70.883-48.093-69.53-84.846-196.475-35.496-282.165 24.516-42.554 68.328-69.501 115.882-70.192 36.173-.69 70.315 24.336 92.429 24.336 22.1 0 63.59-30.096 107.208-25.676 18.26.76 69.517 7.376 102.429 55.552-2.652 1.644-61.159 35.704-60.523 106.559M310.369 89.418C329.926 65.745 343.089 32.79 339.498 0 311.308 1.133 277.22 18.785 257 42.445c-18.121 20.952-33.991 54.487-29.709 86.628 31.421 2.431 63.52-15.967 83.078-39.655"/>
</symbol>
<symbol viewBox="0 0 192 192" xmlns="http://www.w3.org/2000/svg" xml:space="preserve" id="rustore">
<g >
<path d="M46.853 24.746v-4.319c0-2.762 2.611-4.789 5.304-4.116l17.054 4.26a5.31 5.31 0 0 1 4.034 5.146v28.658c0 2.763-2.611 4.789-5.304 4.116l-10.09-2.52" style="display:inline;fill-opacity:1;stroke-width:4.6249;stroke-linecap:round;stroke-linejoin:round;stroke-dasharray:none;stroke-opacity:1" transform="matrix(2.5351 0 0 2.6556 -15.545 -20.844)"/>
<path d="M30.805 31.18v-4.154c0-2.763 2.61-4.79 5.304-4.117l17.053 4.26a5.31 5.31 0 0 1 4.034 5.146v28.658c0 2.763-2.61 4.79-5.304 4.116L41.76 62.558" style="display:inline;fill-opacity:1;;stroke-width:4.6249;stroke-linecap:square;stroke-linejoin:round;stroke-dasharray:none;stroke-opacity:1" transform="matrix(2.5351 0 0 2.6556 -15.545 -20.844)"/>
<path d="M18.79 67.427a5.31 5.31 0 0 1-4.034-5.146V33.623c0-2.763 2.61-4.789 5.304-4.116l17.054 4.26a5.31 5.31 0 0 1 4.033 5.146V67.57c0 2.762-2.61 4.789-5.304 4.116z" style="display:inline;fill-opacity:1;stroke-width:4.6249;stroke-linecap:round;stroke-linejoin:round;stroke-dasharray:none;stroke-opacity:1" transform="matrix(2.5351 0 0 2.6556 -15.545 -20.844)"/>
</g>
</symbol>
<symbol viewBox="0 0 24 24"  id="google-play" xmlns="http://www.w3.org/2000/svg">
<path d="M2 3.65629C2 2.15127 3.59967 1.18549 4.93149 1.88645L20.7844 10.2301C22.2091 10.9799 22.2091 13.0199 20.7844 13.7698L4.9315 22.1134C3.59968 22.8144 2 21.8486 2 20.3436V3.65629ZM19.8529 11.9999L16.2682 10.1132L14.2243 11.9999L16.2682 13.8866L19.8529 11.9999ZM14.3903 14.875L12.75 13.3608L6.75782 18.8921L14.3903 14.875ZM12.75 10.639L14.3903 9.12488L6.75782 5.10777L12.75 10.639ZM4 5.28391L11.2757 11.9999L4 18.7159V5.28391Z" />
</symbol>
<symbol xmlns="http://www.w3.org/2000/svg"  viewBox="0 0 31 27"  id='arrow'>
<path d="M3 9.5C3 10.3284 2.32843 11 1.5 11C0.671573 11 0 10.3284 0 9.5C0 8.67157 0.671573 8 1.5 8C2.32843 8 3 8.67157 3 9.5Z" fill="#26886B"/><path d="M3 13.5C3 14.3284 2.32843 15 1.5 15C0.671573 15 0 14.3284 0 13.5C0 12.6716 0.671573 12 1.5 12C2.32843 12 3 12.6716 3 13.5Z" fill="#26886B"/><path d="M3 17.5C3 18.3284 2.32843 19 1.5 19C0.671573 19 0 18.3284 0 17.5C0 16.6716 0.671573 16 1.5 16C2.32843 16 3 16.6716 3 17.5Z" fill="#26886B"/><path d="M7 9.5C7 10.3284 6.32843 11 5.5 11C4.67157 11 4 10.3284 4 9.5C4 8.67157 4.67157 8 5.5 8C6.32843 8 7 8.67157 7 9.5Z" fill="#26886B"/><path d="M7 13.5C7 14.3284 6.32843 15 5.5 15C4.67157 15 4 14.3284 4 13.5C4 12.6716 4.67157 12 5.5 12C6.32843 12 7 12.6716 7 13.5Z" fill="#26886B"/><path d="M7 17.5C7 18.3284 6.32843 19 5.5 19C4.67157 19 4 18.3284 4 17.5C4 16.6716 4.67157 16 5.5 16C6.32843 16 7 16.6716 7 17.5Z" fill="#26886B"/><path d="M11 9.5C11 10.3284 10.3284 11 9.5 11C8.67157 11 8 10.3284 8 9.5C8 8.67157 8.67157 8 9.5 8C10.3284 8 11 8.67157 11 9.5Z" fill="#26886B"/><path d="M11 13.5C11 14.3284 10.3284 15 9.5 15C8.67157 15 8 14.3284 8 13.5C8 12.6716 8.67157 12 9.5 12C10.3284 12 11 12.6716 11 13.5Z" fill="#26886B"/><path d="M11 17.5C11 18.3284 10.3284 19 9.5 19C8.67157 19 8 18.3284 8 17.5C8 16.6716 8.67157 16 9.5 16C10.3284 16 11 16.6716 11 17.5Z" fill="#26886B"/><path d="M15 9.5C15 10.3284 14.3284 11 13.5 11C12.6716 11 12 10.3284 12 9.5C12 8.67157 12.6716 8 13.5 8C14.3284 8 15 8.67157 15 9.5Z" fill="#26886B"/><path d="M15 13.5C15 14.3284 14.3284 15 13.5 15C12.6716 15 12 14.3284 12 13.5C12 12.6716 12.6716 12 13.5 12C14.3284 12 15 12.6716 15 13.5Z" fill="#26886B"/><path d="M15 17.5C15 18.3284 14.3284 19 13.5 19C12.6716 19 12 18.3284 12 17.5C12 16.6716 12.6716 16 13.5 16C14.3284 16 15 16.6716 15 17.5Z" fill="#26886B"/><path d="M19 1.5C19 2.32843 18.3284 3 17.5 3C16.6716 3 16 2.32843 16 1.5C16 0.671573 16.6716 0 17.5 0C18.3284 0 19 0.671573 19 1.5Z" fill="#26886B"/><path d="M19 5.5C19 6.32843 18.3284 7 17.5 7C16.6716 7 16 6.32843 16 5.5C16 4.67157 16.6716 4 17.5 4C18.3284 4 19 4.67157 19 5.5Z" fill="#26886B"/><path d="M19 9.5C19 10.3284 18.3284 11 17.5 11C16.6716 11 16 10.3284 16 9.5C16 8.67157 16.6716 8 17.5 8C18.3284 8 19 8.67157 19 9.5Z" fill="#26886B"/><path d="M19 13.5C19 14.3284 18.3284 15 17.5 15C16.6716 15 16 14.3284 16 13.5C16 12.6716 16.6716 12 17.5 12C18.3284 12 19 12.6716 19 13.5Z" fill="#26886B"/><path d="M19 17.5C19 18.3284 18.3284 19 17.5 19C16.6716 19 16 18.3284 16 17.5C16 16.6716 16.6716 16 17.5 16C18.3284 16 19 16.6716 19 17.5Z" fill="#26886B"/><path d="M19 21.5C19 22.3284 18.3284 23 17.5 23C16.6716 23 16 22.3284 16 21.5C16 20.6716 16.6716 20 17.5 20C18.3284 20 19 20.6716 19 21.5Z" fill="#26886B"/><path d="M19 25.5C19 26.3284 18.3284 27 17.5 27C16.6716 27 16 26.3284 16 25.5C16 24.6716 16.6716 24 17.5 24C18.3284 24 19 24.6716 19 25.5Z" fill="#26886B"/><path d="M23 5.5C23 6.32843 22.3284 7 21.5 7C20.6716 7 20 6.32843 20 5.5C20 4.67157 20.6716 4 21.5 4C22.3284 4 23 4.67157 23 5.5Z" fill="#26886B"/><path d="M23 9.5C23 10.3284 22.3284 11 21.5 11C20.6716 11 20 10.3284 20 9.5C20 8.67157 20.6716 8 21.5 8C22.3284 8 23 8.67157 23 9.5Z" fill="#26886B"/><path d="M23 13.5C23 14.3284 22.3284 15 21.5 15C20.6716 15 20 14.3284 20 13.5C20 12.6716 20.6716 12 21.5 12C22.3284 12 23 12.6716 23 13.5Z" fill="#26886B"/><path d="M23 17.5C23 18.3284 22.3284 19 21.5 19C20.6716 19 20 18.3284 20 17.5C20 16.6716 20.6716 16 21.5 16C22.3284 16 23 16.6716 23 17.5Z" fill="#26886B"/><path d="M23 21.5C23 22.3284 22.3284 23 21.5 23C20.6716 23 20 22.3284 20 21.5C20 20.6716 20.6716 20 21.5 20C22.3284 20 23 20.6716 23 21.5Z" fill="#26886B"/><path d="M27 9.5C27 10.3284 26.3284 11 25.5 11C24.6716 11 24 10.3284 24 9.5C24 8.67157 24.6716 8 25.5 8C26.3284 8 27 8.67157 27 9.5Z" fill="#26886B"/><path d="M27 13.5C27 14.3284 26.3284 15 25.5 15C24.6716 15 24 14.3284 24 13.5C24 12.6716 24.6716 12 25.5 12C26.3284 12 27 12.6716 27 13.5Z" fill="#26886B"/><path d="M27 17.5C27 18.3284 26.3284 19 25.5 19C24.6716 19 24 18.3284 24 17.5C24 16.6716 24.6716 16 25.5 16C26.3284 16 27 16.6716 27 17.5Z" fill="#26886B"/>
<path d="M31 13.5C31 14.3284 30.3284 15 29.5 15C28.6716 15 28 14.3284 28 13.5C28 12.6716 28.6716 12 29.5 12C30.3284 12 31 12.6716 31 13.5Z" fill="#26886B"/>
</symbol>
<symbol id='menu'  viewBox="0 0 24 24" fill="none" xmlns="http://www.w3.org/2000/svg">
<path d="M4 6H20M4 12H20M4 18H20" stroke="#000000" stroke-width="2" stroke-linecap="round" stroke-linejoin="round"/>
</symbol>
<symbol id="plus" xmlns="http://www.w3.org/2000/svg"  viewBox="0 0 25 25"> 
<g stroke="none" stroke-width="1.5"  fill-rule="evenodd" stroke-linecap="square"><g stroke="#2c3763"><g transform="translate(7.500000, 7.700000)"><path d="M5,0 L5,9.28571429"></path><path d="M0.357142857,4.64285714 L9.64285714,4.64285714"></path> </g></g></g></symbol>
<symbol xmlns="http://www.w3.org/2000/svg" id="checkbox" viewBox="0 0 30 30">
<path d="M 26.980469 5.9902344 A 1.0001 1.0001 0 0 0 26.292969 6.2929688 L 11 21.585938 L 4.7070312 15.292969 A 1.0001 1.0001 0 1 0 3.2929688 16.707031 L 10.292969 23.707031 A 1.0001 1.0001 0 0 0 11.707031 23.707031 L 27.707031 7.7070312 A 1.0001 1.0001 0 0 0 26.980469 5.9902344 z"></path>
</symbol>
<symbol xmlns="http://www.w3.org/2000/svg" id="close" viewBox="0 0 72 72">
<path d="M 19 15 C 17.977 15 16.951875 15.390875 16.171875 16.171875 C 14.609875 17.733875 14.609875 20.266125 16.171875 21.828125 L 30.34375 36 L 16.171875 50.171875 C 14.609875 51.733875 14.609875 54.266125 16.171875 55.828125 C 16.951875 56.608125 17.977 57 19 57 C 20.023 57 21.048125 56.609125 21.828125 55.828125 L 36 41.65625 L 50.171875 55.828125 C 51.731875 57.390125 54.267125 57.390125 55.828125 55.828125 C 57.391125 54.265125 57.391125 51.734875 55.828125 50.171875 L 41.65625 36 L 55.828125 21.828125 C 57.390125 20.266125 57.390125 17.733875 55.828125 16.171875 C 54.268125 14.610875 51.731875 14.609875 50.171875 16.171875 L 36 30.34375 L 21.828125 16.171875 C 21.048125 15.391875 20.023 15 19 15 z"></path>
</symbol>
</svg>
