<svg width="0" height="0" class="hidden">
  <symbol fill="inherit" xmlns="http://www.w3.org/2000/svg" viewBox="0 0 24 24" id="calculator-money" >
    <path d="m5.5,10c-3.084,0-5.5,1.318-5.5,3v8c0,1.682,2.416,3,5.5,3s5.5-1.318,5.5-3v-8c0-1.682-2.416-3-5.5-3Zm4.5,7c0,.946-1.848,2-4.5,2s-4.5-1.054-4.5-2v-2.254c.987.764,2.62,1.254,4.5,1.254s3.513-.49,4.5-1.254v2.254Zm-4.5-6c2.652,0,4.5,1.054,4.5,2s-1.848,2-4.5,2-4.5-1.054-4.5-2,1.848-2,4.5-2Zm0,12c-2.652,0-4.5-1.054-4.5-2v-2.254c.987.764,2.62,1.254,4.5,1.254s3.513-.49,4.5-1.254v2.254c0,.946-1.848,2-4.5,2ZM20,5.5c0-.827-.673-1.5-1.5-1.5h-9c-.827,0-1.5.673-1.5,1.5v2c0,.827.673,1.5,1.5,1.5h9c.827,0,1.5-.673,1.5-1.5v-2Zm-1,2c0,.276-.225.5-.5.5h-9c-.275,0-.5-.224-.5-.5v-2c0-.276.225-.5.5-.5h9c.275,0,.5.224.5.5v2Zm1,5c0,.276-.224.5-.5.5s-.5-.224-.5-.5v-1c0-.276.224-.5.5-.5s.5.224.5.5v1Zm-4,0v-1c0-.276.224-.5.5-.5s.5.224.5.5v1c0,.276-.224.5-.5.5s-.5-.224-.5-.5Zm-3,0v-1c0-.276.224-.5.5-.5s.5.224.5.5v1c0,.276-.224.5-.5.5s-.5-.224-.5-.5Zm0,3c0-.276.224-.5.5-.5s.5.224.5.5v1c0,.276-.224.5-.5.5s-.5-.224-.5-.5v-1Zm3,0c0-.276.224-.5.5-.5s.5.224.5.5v1c0,.276-.224.5-.5.5s-.5-.224-.5-.5v-1Zm4,1c0,.276-.224.5-.5.5s-.5-.224-.5-.5v-1c0-.276.224-.5.5-.5s.5.224.5.5v1Zm-7,3c0-.276.224-.5.5-.5h6c.276,0,.5.224.5.5s-.224.5-.5.5h-6c-.276,0-.5-.224-.5-.5Zm11-15v15c0,2.481-2.019,4.5-4.5,4.5h-7c-.276,0-.5-.224-.5-.5s.224-.5.5-.5h7c1.93,0,3.5-1.57,3.5-3.5V4.5c0-1.93-1.57-3.5-3.5-3.5h-11c-1.93,0-3.5,1.57-3.5,3.5v3c0,.276-.224.5-.5.5s-.5-.224-.5-.5v-3C4,2.019,6.019,0,8.5,0h11c2.481,0,4.5,2.019,4.5,4.5Z"/>
  </symbol>
  <symbol xmlns="http://www.w3.org/2000/svg"  fill="inherit" viewBox="0 0 24 24" id="cogwheel">
    <path d="m22.676,16.014c-.178-.644-.597-1.18-1.177-1.509l-.749-.423c.166-.692.25-1.391.25-2.082s-.084-1.39-.25-2.082l.748-.424c1.199-.68,1.623-2.208.943-3.406-.329-.582-.864-1-1.508-1.179-.643-.175-1.318-.095-1.899.234l-.751.426c-1.064-1.041-2.359-1.796-3.784-2.208v-.861c0-1.379-1.122-2.5-2.5-2.5s-2.5,1.121-2.5,2.5v.861c-1.425.412-2.72,1.167-3.784,2.208l-.75-.425c-.581-.33-1.254-.41-1.899-.235-.644.179-1.179.597-1.508,1.179-.679,1.198-.256,2.727.943,3.406l.748.424c-.166.692-.25,1.391-.25,2.082s.084,1.39.25,2.082l-.748.423c-.581.329-1,.865-1.178,1.509-.178.644-.095,1.317.234,1.898.329.582.864,1,1.508,1.179.644.176,1.317.096,1.899-.234l.751-.426c1.064,1.041,2.359,1.796,3.784,2.208v.861c0,1.379,1.122,2.5,2.5,2.5s2.5-1.121,2.5-2.5v-.861c1.425-.412,2.72-1.167,3.784-2.208l.75.425c.582.331,1.255.412,1.899.235.644-.179,1.179-.597,1.508-1.179.329-.581.412-1.255.234-1.898Zm-1.104,1.406c-.197.349-.519.6-.905.707-.386.105-.791.057-1.14-.142l-1.085-.614c-.199-.11-.452-.074-.611.094-1.07,1.141-2.435,1.937-3.949,2.303-.224.055-.382.256-.382.486v1.246c0,.827-.673,1.5-1.5,1.5s-1.5-.673-1.5-1.5v-1.246c0-.23-.158-.432-.382-.486-1.514-.366-2.879-1.162-3.949-2.303-.097-.104-.23-.158-.365-.158-.084,0-.169.021-.246.064l-1.086.615c-.349.197-.753.246-1.139.141-.386-.107-.708-.358-.905-.707-.407-.72-.153-1.637.566-2.044l1.083-.613c.201-.114.297-.351.234-.572-.207-.728-.312-1.464-.312-2.19s.105-1.463.312-2.19c.063-.222-.034-.458-.234-.571l-1.083-.613c-.72-.408-.974-1.325-.566-2.045.197-.349.519-.6.905-.707.386-.105.791-.057,1.14.142l1.085.614c.201.112.454.075.611-.094,1.069-1.141,2.435-1.937,3.949-2.303.224-.055.382-.256.382-.486v-1.246c0-.827.673-1.5,1.5-1.5s1.5.673,1.5,1.5v1.246c0,.23.158.432.382.486,1.514.366,2.879,1.162,3.949,2.303.158.168.411.204.611.094l1.086-.615c.349-.197.753-.246,1.139-.141.386.107.708.358.905.707.408.72.153,1.637-.566,2.045l-1.083.613c-.201.113-.297.35-.234.571.207.728.312,1.464.312,2.19s-.105,1.463-.312,2.19c-.063.222.034.458.234.572l1.083.613c.348.197.599.519.706.904s.057.791-.141,1.14Zm-13.065-5.349l-.007-4.572c0-.275-.224-.499-.5-.499h0c-.276,0-.5.225-.499.501l.007,4.57c-.86.224-1.499,1-1.499,1.929s.638,1.703,1.497,1.928l-.004.568c-.002.276.22.502.496.504h.004c.274,0,.498-.222.5-.496l.004-.574c.862-.223,1.503-1,1.503-1.93s-.64-1.706-1.501-1.929Zm-.499,2.929c-.551,0-1-.448-1-1s.449-1,1-1,1,.448,1,1-.449,1-1,1Zm8.499-2.929l-.007-4.572c0-.275-.224-.499-.5-.499h0c-.276,0-.5.225-.499.501l.007,4.57c-.86.224-1.499,1-1.499,1.929s.638,1.703,1.497,1.928l-.004.568c-.002.276.22.502.496.504h.004c.274,0,.498-.222.5-.496l.004-.574c.862-.223,1.503-1,1.503-1.93s-.64-1.706-1.501-1.929Zm-.499,2.929c-.551,0-1-.448-1-1s.449-1,1-1,1,.448,1,1-.449,1-1,1Zm-3.503-6.93l-.004-.574c-.002-.274-.226-.496-.5-.496h-.004c-.276.002-.498.228-.496.504l.004.568c-.859.225-1.497,1-1.497,1.928s.639,1.705,1.499,1.929l-.007,4.57c0,.276.223.501.499.501h0c.276,0,.5-.224.5-.499l.007-4.572c.861-.223,1.501-1,1.501-1.929s-.641-1.707-1.503-1.93Zm-.497,2.93c-.551,0-1-.448-1-1s.449-1,1-1,1,.448,1,1-.449,1-1,1Z"/>
  </symbol>
  <symbol xmlns="http://www.w3.org/2000/svg" fill="inherit" viewBox="0 0 24 24"  id="fee">
    <path d="m22.416,14.777l-6,9c-.097.145-.255.223-.416.223-.096,0-.192-.027-.277-.084-.229-.153-.292-.464-.139-.693l6-9c.154-.23.465-.291.693-.139.229.153.292.464.139.693Zm1.584,7.223c0,1.103-.897,2-2,2s-2-.897-2-2,.897-2,2-2,2,.897,2,2Zm-1,0c0-.552-.448-1-1-1s-1,.448-1,1,.448,1,1,1,1-.448,1-1Zm-7-4c-1.103,0-2-.897-2-2s.897-2,2-2,2,.897,2,2-.897,2-2,2Zm0-1c.552,0,1-.448,1-1s-.448-1-1-1-1,.448-1,1,.448,1,1,1ZM4,5c-.552,0-1,.448-1,1s.448,1,1,1,1-.448,1-1-.448-1-1-1Zm17,1c0-.552-.448-1-1-1s-1,.448-1,1,.448,1,1,1,1-.448,1-1ZM4,13c-.552,0-1,.448-1,1s.448,1,1,1,1-.448,1-1-.448-1-1-1ZM19.5,2H4.5C2.019,2,0,4.019,0,6.5v7c0,2.481,2.019,4.5,4.5,4.5h7c.276,0,.5-.224.5-.5s-.224-.5-.5-.5h-7c-1.93,0-3.5-1.57-3.5-3.5v-7c0-1.93,1.57-3.5,3.5-3.5h15c1.93,0,3.5,1.57,3.5,3.5v5c0,.276.224.5.5.5s.5-.224.5-.5v-5c0-2.481-2.019-4.5-4.5-4.5Zm-7.5,12c-2.206,0-4-1.794-4-4s1.794-4,4-4,4,1.794,4,4-1.794,4-4,4Zm3-4c0-1.654-1.346-3-3-3s-3,1.346-3,3,1.346,3,3,3,3-1.346,3-3Z"/>
  </symbol>
  <symbol xmlns="http://www.w3.org/2000/svg" fill="inherit" id="meeting" data-name="meeting" viewBox="0 0 24 24">
    <path d="m9.499,24c.02,0-.02.002,0,0h0Zm9.501-13c1.654,0,3,1.346,3,3s-1.346,3-3,3-3-1.346-3-3,1.346-3,3-3Zm-2,3c0,1.103.897,2,2,2s2-.897,2-2-.897-2-2-2-2,.897-2,2Zm-15,0c0-1.654,1.346-3,3-3s3,1.346,3,3-1.346,3-3,3-3-1.346-3-3Zm1,0c0,1.103.897,2,2,2s2-.897,2-2-.897-2-2-2-2,.897-2,2Zm2,5C2.438,19,.291,20.91.003,23.444c-.031.274.166.522.44.553.267.032.522-.165.554-.44.229-2.027,1.951-3.556,4.003-3.556s3.773,1.529,4.003,3.556c.029.255.245.444.496.444.274-.031.529-.282.498-.556-.288-2.534-2.436-4.444-4.997-4.444Zm18.5,5c-.02.002.02,0,0,0h0Zm.497-.556c-.288-2.534-2.436-4.444-4.997-4.444s-4.709,1.91-4.997,4.444c-.031.274.166.522.44.553.272.032.521-.165.554-.44.229-2.027,1.951-3.556,4.003-3.556s3.773,1.529,4.003,3.556c.029.255.246.444.497.444.274-.031.528-.282.497-.556Zm-9.303-14.444l-2.02,1.746c-.19.169-.432.254-.673.254-.243,0-.487-.086-.682-.259l-1.977-1.741h-.344c-1.654,0-3-1.346-3-3v-3c0-1.654,1.346-3,3-3h6c1.654,0,3,1.346,3,3v3c0,1.654-1.346,3-3,3h-.306Zm-.187-1h.492c1.103,0,2-.897,2-2v-3c0-1.103-.897-2-2-2h-6c-1.103,0-2,.897-2,2v3c0,1.103.897,2,2,2h.532c.122,0,.239.044.33.125l2.12,1.868,2.198-1.871c.091-.078.207-.122.327-.122Z"/>
  </symbol>
  <symbol xmlns="http://www.w3.org/2000/svg" fill="inherit" id="padlock-check" data-name="padlock-check" viewBox="0 0 24 24">
    <path d="m17.5,11c-3.584,0-6.5,2.916-6.5,6.5s2.916,6.5,6.5,6.5,6.5-2.916,6.5-6.5-2.916-6.5-6.5-6.5Zm0,12c-3.033,0-5.5-2.468-5.5-5.5s2.467-5.5,5.5-5.5,5.5,2.468,5.5,5.5-2.467,5.5-5.5,5.5Zm2.94-7.451l.701.713-3.457,3.399c-.217.218-.51.339-.822.339s-.604-.121-.825-.342l-1.851-1.794.696-.719,1.856,1.8c.062.062.186.062.241.006l3.46-3.402ZM2.5,23c-.827,0-1.5-.673-1.5-1.5v-12.5h18v-1h-3v-1.5c0-3.584-2.916-6.5-6.5-6.5S3,2.916,3,6.5v1.5H0v13.5c0,1.379,1.122,2.5,2.5,2.5h8.849c-.376-.304-.722-.641-1.045-1H2.5Zm1.5-16.5c0-3.033,2.467-5.5,5.5-5.5s5.5,2.467,5.5,5.5v1.5H4v-1.5Zm5,11.5v-4h1v4h-1Z"/>
  </symbol>
  <symbol xmlns="http://www.w3.org/2000/svg" fill="inherit" id="payment-pos" data-name="payment-pos" viewBox="0 0 24 24">
    <path d="m19.416,16.601l-2.639,2.746-.721-.693,2.616-2.721c.453-.541.439-1.384-.055-1.935-.267-.298-.634-.475-1.032-.496-.395-.011-.782.113-1.08.38l-3.493,3.531c-.653.66-1.013,1.534-1.013,2.462v4.125h-1v-4.125c0-1.192.462-2.316,1.302-3.165l3.515-3.552c.52-.467,1.158-.696,1.824-.654.666.036,1.277.33,1.722.826.824.919.848,2.325.054,3.271ZM1,2.5c0-.827.673-1.5,1.5-1.5h9.642c.092-.356.233-.69.414-1H2.5C1.121,0,0,1.121,0,2.5v21.5h9v-1H1V2.5Zm11,2.5v-1H4v4h8v-1h-7v-2h7Zm-6,5h-2v1h2v-1Zm0,3h-2v1h2v-1Zm2-2h2v-1h-2v1Zm0,3h2v-1h-2v1Zm-2,2h-2v1h2v-1Zm2,1h2v-1h-2v1Zm-4,3h2v-1h-2v1Zm4,0h2v-1h-2v1ZM22,0h-6c-1.105,0-2,.895-2,2v10c0,.048.011.093.014.141l.465-.47c.164-.147.343-.265.521-.386V2c0-.552.448-1,1-1h6c.552,0,1,.448,1,1v10c0,.552-.448,1-1,1h-.489c.159.322.284.655.362,1h.127c1.105,0,2-.895,2-2V2c0-1.105-.895-2-2-2Zm1,19.231c0,.371-.137.729-.386,1.005l-3.365,3.764h1.354l2.747-3.087c.422-.468.65-1.063.65-1.682v-3.788c-.31.181-.644.322-1,.414v3.373Z"/>
  </symbol>
  <symbol xmlns="http://www.w3.org/2000/svg" fill="inherit" id="stats" data-name="stats" viewBox="0 0 24 24">
    <path d="m24,23.5c0,.276-.224.5-.5.5H4.5c-2.481,0-4.5-2.019-4.5-4.5V.5C0,.224.224,0,.5,0s.5.224.5.5v19c0,1.93,1.57,3.5,3.5,3.5h19c.276,0,.5.224.5.5Zm-5.5-3.5c.276,0,.5-.224.5-.5V6.5c0-.276-.224-.5-.5-.5s-.5.224-.5.5v13c0,.276.224.5.5.5Zm-4,0c.276,0,.5-.224.5-.5v-8c0-.276-.224-.5-.5-.5s-.5.224-.5.5v8c0,.276.224.5.5.5Zm-4,0c.276,0,.5-.224.5-.5V6.5c0-.276-.224-.5-.5-.5s-.5.224-.5.5v13c0,.276.224.5.5.5Zm-4,0c.276,0,.5-.224.5-.5v-8c0-.276-.224-.5-.5-.5s-.5.224-.5.5v8c0,.276.224.5.5.5Z"/>
  </symbol>
  <symbol xmlns="http://www.w3.org/2000/svg" fill="inherit" id="user-headset" data-name="user-headset" viewBox="0 0 24 24">
    <path d="m21,21v3h-1v-3c0-1.654-1.346-3-3-3H7c-1.654,0-3,1.346-3,3v3h-1v-3c0-2.206,1.794-4,4-4h10c2.206,0,4,1.794,4,4ZM4,9h-1c0-2.562,1.098-5.011,3.011-6.719C7.923.577,10.491-.229,13.06.061c3.997.458,7.299,3.676,7.851,7.652.216,1.556.034,3.134-.525,4.565-.638,1.628-2.301,2.722-4.137,2.722h-4.248c-1.103,0-2-.897-2-2s.897-2,2-2,2,.897,2,2c0,.364-.098.706-.269,1h2.517c1.429,0,2.717-.839,3.205-2.087.498-1.271.659-2.677.467-4.063-.49-3.531-3.424-6.389-6.974-6.795-2.319-.266-4.545.436-6.27,1.974-1.701,1.518-2.677,3.694-2.677,5.972Zm8,5c.551,0,1-.448,1-1s-.449-1-1-1-1,.448-1,1,.449,1,1,1Zm0-10c2.757,0,5,2.243,5,5,0,1.133-.401,2.161-1.04,3h1.227c.515-.883.814-1.906.814-3,0-3.309-2.691-6-6-6s-6,2.691-6,6c0,1.796.797,3.405,2.051,4.506-.021-.167-.051-.333-.051-.506,0-.31.043-.608.11-.898-.684-.855-1.11-1.925-1.11-3.102,0-2.757,2.243-5,5-5Z"/>
  </symbol>  
   <symbol xmlns="http://www.w3.org/2000/svg" fill="inherit" id="ww" data-name="ww" viewBox="0 0 24 24" >
  <path d="M12,24c-1.358,0-2.641-.521-3.612-1.467l-4.151-2.818c-2.093-2.083-3.237-4.834-3.237-7.761s1.144-5.678,3.222-7.747C6.3,1.139,9.062,0,12,0s5.7,1.139,7.777,3.208c2.078,2.069,3.223,4.821,3.223,7.747s-1.145,5.678-3.223,7.747l-4.176,3.842c-.96,.936-2.243,1.457-3.602,1.457Zm0-23c-2.672,0-5.183,1.036-7.072,2.917-1.889,1.88-2.928,4.379-2.928,7.038s1.04,5.158,2.928,7.038l4.147,3.814c1.587,1.546,4.273,1.536,5.838,.01l4.172-3.838c1.874-1.866,2.914-4.366,2.914-7.024s-1.04-5.158-2.929-7.038c-1.889-1.881-4.4-2.917-7.071-2.917Zm4.354,11.197c.195-.195,.195-.512,0-.707s-.512-.195-.707,0c-.974,.974-2.269,1.51-3.646,1.51s-2.672-.536-3.646-1.51c-.195-.195-.512-.195-.707,0s-.195,.512,0,.707c1.163,1.163,2.709,1.803,4.354,1.803s3.191-.641,4.354-1.803Zm-7.353-5.197c-.552,0-1,.448-1,1s.448,1,1,1,1-.448,1-1-.448-1-1-1Zm6,0c-.552,0-1,.448-1,1s.448,1,1,1,1-.448,1-1-.448-1-1-1Z"/>
  </symbol>
  <symbol xmlns="http://www.w3.org/2000/svg" fill="inherit" id="map" data-name="map" viewBox="0 0 24 24" >
  <path d="M12,24c-1.358,0-2.641-.521-3.612-1.467l-4.151-2.818c-2.093-2.083-3.237-4.834-3.237-7.761s1.144-5.678,3.222-7.747C6.3,1.139,9.062,0,12,0s5.7,1.139,7.777,3.208c2.078,2.069,3.223,4.821,3.223,7.747s-1.145,5.678-3.223,7.747l-4.176,3.842c-.96,.936-2.243,1.457-3.602,1.457Zm0-23c-2.672,0-5.183,1.036-7.072,2.917-1.889,1.88-2.928,4.379-2.928,7.038s1.04,5.158,2.928,7.038l4.147,3.814c1.587,1.546,4.273,1.536,5.838,.01l4.172-3.838c1.874-1.866,2.914-4.366,2.914-7.024s-1.04-5.158-2.929-7.038c-1.889-1.881-4.4-2.917-7.071-2.917Zm4.354,11.197c.195-.195,.195-.512,0-.707s-.512-.195-.707,0c-.974,.974-2.269,1.51-3.646,1.51s-2.672-.536-3.646-1.51c-.195-.195-.512-.195-.707,0s-.195,.512,0,.707c1.163,1.163,2.709,1.803,4.354,1.803s3.191-.641,4.354-1.803Zm-7.353-5.197c-.552,0-1,.448-1,1s.448,1,1,1,1-.448,1-1-.448-1-1-1Zm6,0c-.552,0-1,.448-1,1s.448,1,1,1,1-.448,1-1-.448-1-1-1Z"/>
  </symbol>
  <symbol xmlns="http://www.w3.org/2000/svg" fill="inherit"  id="telegram" data-name="telegram" viewBox="0 0 24 24" >
<path d="M 25 2 C 12.309288 2 2 12.309297 2 25 C 2 37.690703 12.309288 48 25 48 C 37.690712 48 48 37.690703 48 25 C 48 12.309297 37.690712 2 25 2 z M 25 4 C 36.609833 4 46 13.390175 46 25 C 46 36.609825 36.609833 46 25 46 C 13.390167 46 4 36.609825 4 25 C 4 13.390175 13.390167 4 25 4 z M 34.087891 14.035156 C 33.403891 14.035156 32.635328 14.193578 31.736328 14.517578 C 30.340328 15.020578 13.920734 21.992156 12.052734 22.785156 C 10.984734 23.239156 8.9960938 24.083656 8.9960938 26.097656 C 8.9960938 27.432656 9.7783594 28.3875 11.318359 28.9375 C 12.146359 29.2325 14.112906 29.828578 15.253906 30.142578 C 15.737906 30.275578 16.25225 30.34375 16.78125 30.34375 C 17.81625 30.34375 18.857828 30.085859 19.673828 29.630859 C 19.666828 29.798859 19.671406 29.968672 19.691406 30.138672 C 19.814406 31.188672 20.461875 32.17625 21.421875 32.78125 C 22.049875 33.17725 27.179312 36.614156 27.945312 37.160156 C 29.021313 37.929156 30.210813 38.335938 31.382812 38.335938 C 33.622813 38.335938 34.374328 36.023109 34.736328 34.912109 C 35.261328 33.299109 37.227219 20.182141 37.449219 17.869141 C 37.600219 16.284141 36.939641 14.978953 35.681641 14.376953 C 35.210641 14.149953 34.672891 14.035156 34.087891 14.035156 z M 34.087891 16.035156 C 34.362891 16.035156 34.608406 16.080641 34.816406 16.181641 C 35.289406 16.408641 35.530031 16.914688 35.457031 17.679688 C 35.215031 20.202687 33.253938 33.008969 32.835938 34.292969 C 32.477938 35.390969 32.100813 36.335938 31.382812 36.335938 C 30.664813 36.335938 29.880422 36.08425 29.107422 35.53125 C 28.334422 34.97925 23.201281 31.536891 22.488281 31.087891 C 21.863281 30.693891 21.201813 29.711719 22.132812 28.761719 C 22.899812 27.979719 28.717844 22.332938 29.214844 21.835938 C 29.584844 21.464938 29.411828 21.017578 29.048828 21.017578 C 28.923828 21.017578 28.774141 21.070266 28.619141 21.197266 C 28.011141 21.694266 19.534781 27.366266 18.800781 27.822266 C 18.314781 28.124266 17.56225 28.341797 16.78125 28.341797 C 16.44825 28.341797 16.111109 28.301891 15.787109 28.212891 C 14.659109 27.901891 12.750187 27.322734 11.992188 27.052734 C 11.263188 26.792734 10.998047 26.543656 10.998047 26.097656 C 10.998047 25.463656 11.892938 25.026 12.835938 24.625 C 13.831938 24.202 31.066062 16.883437 32.414062 16.398438 C 33.038062 16.172438 33.608891 16.035156 34.087891 16.035156 z"/>
</symbol>
<symbol xmlns="http://www.w3.org/2000/svg" fill="inherit"  id="menu" data-name="menu" viewBox="0 0 24 24" >
<path d="M 3 7 A 1.0001 1.0001 0 1 0 3 9 L 27 9 A 1.0001 1.0001 0 1 0 27 7 L 3 7 z M 3 14 A 1.0001 1.0001 0 1 0 3 16 L 27 16 A 1.0001 1.0001 0 1 0 27 14 L 3 14 z M 3 21 A 1.0001 1.0001 0 1 0 3 23 L 27 23 A 1.0001 1.0001 0 1 0 27 21 L 3 21 z"/>
</symbol>
</svg>
