<svg width="0" height="0" class="hidden">
    <symbol id="pillar-back" xmlns="http://www.w3.org/2000/svg" xmlns:xlink="http://www.w3.org/1999/xlink" viewBox="0 0 402.81 184.73"><defs><linearGradient id="linear-gradient" y1="50.02" x2="348.66" y2="50.02" gradientUnits="userSpaceOnUse"><stop offset="0" stop-color="#3fea9c" stop-opacity="0"/><stop offset="0.01" stop-color="#3fea9c" stop-opacity="0.03"/><stop offset="0.06" stop-color="#3fea9c" stop-opacity="0.15"/><stop offset="0.11" stop-color="#3fea9c" stop-opacity="0.24"/><stop offset="0.17" stop-color="#3fea9c" stop-opacity="0.31"/><stop offset="0.25" stop-color="#3fea9c" stop-opacity="0.36"/><stop offset="0.36" stop-color="#3fea9c" stop-opacity="0.39"/><stop offset="0.66" stop-color="#3fea9c" stop-opacity="0.4"/></linearGradient></defs><g id="Layer_2" data-name="Layer 2"><g id="сцены"><g id="камера_2" data-name="камера 2"><polygon fill="#26574f"  points="384.74 8.34 393.67 3.26 402.66 8.34 393.76 13.48 384.74 8.34"/><path fill="#26886b"  d="M393.86,184.73l8.95-5.14L402.66,8.34l-8.9,5.14Z"/><path fill="#26bc71"  d="M384.92,179.59,384.74,8.34l9,5.14q0,85.62.1,171.25Z"/><path fill='#26bc715c' d="M346,9.93,29.49,64.29,5.39,79Q2.69,84.57,0,90.11l348.66-70Z"/><polygon fill="#26886b"  points="374.63 38.55 374.74 24.09 387.27 16.86 387.27 31.41 374.63 38.55"/><path fill="#26bc71"  d="M349.68,9.67l-4.37-2.5,4.37,16.91h0l24.95,14.47q.06-7.23.11-14.47Z"/><path fill="#26574f"  d="M345.31,7.17,357.84,0,382.9,14.35l4.37,2.51-12.53,7.22Z"/><polygon fill="#26886b"  points="391.61 20.63 391.61 27.09 380.97 33.08 380.98 26.7 391.61 20.63"/><polygon fill="#26574f"  points="391.61 20.63 387.12 18.07 376.51 24.16 380.98 26.7 391.61 20.63"/><polygon fill="#26bc71"  points="376.51 24.16 380.98 26.7 380.97 33.08 376.51 30.53 376.51 24.16"/></g></g></g></symbol>
    <symbol id="pillar" xmlns="http://www.w3.org/2000/svg" xmlns:xlink="http://www.w3.org/1999/xlink" viewBox="0 0 479.91 286.88"><defs><linearGradient id="linear-gradient" x1="108.95" y1="54.52" x2="473.88" y2="284.15" gradientUnits="userSpaceOnUse"><stop offset="0.43" stop-color="#6879be" stop-opacity="0.5"/><stop offset="0.65" stop-color="#6879be" stop-opacity="0.49"/><stop offset="0.73" stop-color="#6879be" stop-opacity="0.45"/><stop offset="0.79" stop-color="#6879be" stop-opacity="0.39"/><stop offset="0.84" stop-color="#6879be" stop-opacity="0.3"/><stop offset="0.88" stop-color="#6879be" stop-opacity="0.19"/><stop offset="0.91" stop-color="#6879be" stop-opacity="0.05"/><stop offset="0.92" stop-color="#6879be" stop-opacity="0"/></linearGradient></defs><g id="Layer_2" data-name="Layer 2"><g id="сцены"><g id="камера_1" data-name="камера 1"><polygon fill='#2e3760' points="19.47 7.99 10.33 13.2 10.59 29.8 19.47 24.66 19.47 7.99"/><polygon fill='#09171d' points="56.88 17.4 56.88 31.75 44.24 39.05 44.35 24.58 56.88 17.4"/><path fill='#f2f2f2' d="M56.73,24.71c0,3.76-2.44,8.23-5.47,10s-5.5.13-5.51-3.63,2.43-8.23,5.47-10S56.72,21,56.73,24.71ZM51.25,32a7.62,7.62,0,0,0,3.31-6c0-2.27-1.5-3.25-3.33-2.19a7.57,7.57,0,0,0-3.31,6C47.92,32.08,49.42,33.06,51.25,32Z"/><polygon fill='#2e3760' points="44.14 24.44 44.14 24.45 19.29 10.23 19.29 24.57 44.24 39.05 48.72 27.14 44.14 24.44"/><polygon fill='#2e3760' points="56.88 17.4 56.88 31.75 61.25 19.91 56.88 17.4"/><polygon fill='#6879be' points="56.88 17.41 31.82 3.06 28.23 5.12 19.29 0 10.33 5.13 19.33 10.26 19.33 10.26 44.35 24.59 44.36 24.58 48.72 27.15 61.25 19.92 56.88 17.41"/><polygon fill='#2e3760' points="8.97 181.05 17.91 175.93 17.91 5.81 9.03 10.89 8.97 181.05"/><polygon fill='#4f5b97' points="0.03 175.93 0 5.82 9.03 10.89 8.97 181.05 0.03 175.93"/><path fill='#2e37603d' d="M47.19,31.19,440.92,286.88l39-22.42L54,24.08l-5.32,3.06Z"/><polygon fill='#6879be' points="0 5.82 9.03 10.89 17.91 5.81 8.9 0.7 0 5.82"/></g></g></g></symbol>
    <symbol id="barrier" xmlns="http://www.w3.org/2000/svg" xmlns:xlink="http://www.w3.org/1999/xlink" viewBox="0 0 266.61 194.12"><defs> <clipPath id="clip-path"><path fill='#999' d="M243.92,83l-2.1-1.21a2.24,2.24,0,0,0,2.24-.22,6.94,6.94,0,0,0,3.15-5.41,2.16,2.16,0,0,0-.91-2l2.1,1.21a2.17,2.17,0,0,1,.91,2,6.94,6.94,0,0,1-3.15,5.41A2.24,2.24,0,0,1,243.92,83Z"/></clipPath><clipPath id="clip-path-2"><path fill='#999' d="M249.88,68l2.1,1.21c1.86,1.07,2.77,3.64,2.3,6.93a27.27,27.27,0,0,1-1.7,6.17,69.18,69.18,0,0,1-6.25,11.92.7.7,0,0,1-.14.15.14.14,0,0,1-.15,0l-2.1-1.21a.16.16,0,0,0,.15,0,.7.7,0,0,0,.14-.15,69.89,69.89,0,0,0,6.25-11.92,27.27,27.27,0,0,0,1.7-6.17C252.64,71.68,251.74,69.11,249.88,68Z"/></clipPath><clipPath id="clip-path-3"><path fill='#999' d="M239.73,89.51l-2.1-1.21a.48.48,0,0,0,.5,0,1,1,0,0,0,.21-.16,2,2,0,0,0,.64-1.19l2.1,1.21a2,2,0,0,1-.64,1.19,1,1,0,0,1-.21.16A.48.48,0,0,1,239.73,89.51Z"/></clipPath><clipPath id="clip-path-4"><path fill='#999' d="M247.64,71.86l2.1,1.21a3.55,3.55,0,0,0-3.57.34,8.88,8.88,0,0,0-1,.68,11,11,0,0,0-4.09,8.09l0,5.47a3.85,3.85,0,0,1,0,.48L239,86.92c0-.16,0-.32,0-.48L239,81a10.94,10.94,0,0,1,4.09-8.09,8.88,8.88,0,0,1,1-.68A3.55,3.55,0,0,1,247.64,71.86Z"/></clipPath></defs><g id="Layer_2" data-name="Layer 2"><g id="сцены"><g id="шлагбаум_2" data-name="шлагбаум 2"><polygon fill='#26bc71' points="201.53 97.27 230.83 114.04 230.83 32.13 201.44 15.3 201.53 97.27"/><polygon fill='#3fea9c' points="228.36 0 257.66 16.77 230.83 32.13 201.44 15.3 228.36 0"/><polygon fill='#26886b' points="230.83 32.13 230.83 114.04 257.66 98.68 257.66 16.77 230.83 32.13"/><polygon fill='#eff5fa' points="232.53 47.67 237.6 50.58 5.07 183.68 0 180.77 232.53 47.67"/><polygon fill='#ccc' points="4.73 194.12 0 191.38 0 180.77 5.08 183.68 4.73 194.12"/><polygon fill='#b3b3b3' points="237.6 50.58 237.6 60.82 4.73 194.12 5.08 183.68 237.6 50.58"/><polygon fill='#26574f' points="239.78 47.48 266.61 32.13 266.61 52.6 239.78 67.95 239.78 47.48"/><polygon fill='#3fea9c' points="230.83 42.37 239.78 47.49 266.61 32.13 257.66 27.01 230.83 42.37"/></g></g></g></symbol>
    <symbol id="barrier-back" xmlns="http://www.w3.org/2000/svg" viewBox="0 0 263.64 239.55"><defs></defs><g id="Layer_2" data-name="Layer 2"><g id="сцены"><g id="шлагбаум_1" data-name="шлагбаум 1"><polygon fill='#3f4c81' points="0 145.9 0 166.5 8.94 171.48 8.94 151.02 0 145.9"/><polygon fill='#b3b3b3' points="263.64 2.91 263.64 13.15 31.68 146.1 31.12 136.01 263.64 2.91"/><polygon fill='#eff5fa' points="258.57 0 263.64 2.91 31.12 136.01 26.04 133.1 258.57 0"/><polygon fill='#6879be' points="0 145.9 8.94 151.02 35.77 135.66 26.83 130.54 0 145.9"/><polygon fill='#4f5b97' points="5.64 222.78 34.94 239.55 34.94 157.64 5.54 140.81 5.64 222.78"/><polygon fill='#6879be' points="32.47 125.51 61.77 142.28 34.94 157.64 5.54 140.81 32.47 125.51"/><polygon fill='#2e3760' points="34.94 157.64 34.94 239.55 61.77 224.19 61.77 142.28 34.94 157.64"/></g></g></g></symbol> 
    <symbol id="platform" xmlns="http://www.w3.org/2000/svg" xmlns:xlink="http://www.w3.org/1999/xlink"  viewBox="0 0 945 470"><defs>    <clipPath id="clip-path"><path fill='#f2f2f2' d="M656.28,319.47a13.77,13.77,0,0,1,7.4-.9c8.88,1.53,14.86,12.85,14.41,22.25-.08,1.72-.74,11-5.85,12.26-4,1-8-3.62-8.46-4.1-6.11-3.71-11-13.17-11-21.13C652.76,323.71,654.12,320.79,656.28,319.47Z"/></clipPath><clipPath id="clip-path-2"><path fill='#f2f2f2' d="M813,407.9a13.87,13.87,0,0,1,7.4-.9c8.89,1.54,14.86,12.86,14.41,22.25-.08,1.72-.74,11-5.85,12.26-4,1-8-3.61-8.45-4.1-6.12-3.71-11.06-13.17-11-21.12C809.43,412.14,810.79,409.22,813,407.9Z"/></clipPath><clipPath id="clip-path-3"><path fill='#f2f2f2' d="M39.23,242.14a13.77,13.77,0,0,1,7.4-.9c8.88,1.53,14.86,12.85,14.41,22.25-.08,1.72-.74,11-5.85,12.26-4,1-8-3.62-8.46-4.1-6.11-3.71-11-13.17-11-21.13C35.71,246.38,37.07,243.46,39.23,242.14Z"/></clipPath><clipPath id="clip-path-4"><path fill='#f2f2f2' d="M184.07,322.93a13.77,13.77,0,0,1,7.4-.9c8.89,1.54,14.86,12.86,14.41,22.25-.08,1.72-.74,11-5.85,12.26-4,1-8-3.62-8.45-4.1-6.11-3.71-11.06-13.17-11-21.12C180.56,327.17,181.91,324.25,184.07,322.93Z"/></clipPath></defs><polygon fill='#c0c2c1' points="588.08 354.06 561.25 338.7 248.24 159.53 186.43 194.91 186.43 190.24 176.69 190.24 176.69 200.48 176.7 200.48 632.8 461.56 695.4 425.73 695.4 415.49 588.08 354.06"/><polygon fill='#e2e2e2' points="695.4 415.49 239.3 154.41 176.69 190.24 632.8 451.32 695.4 415.49"/><polygon fill='#c0c2c1' points="382.97 256.93 382.97 298.12 436.05 328.46 436.01 287.2 382.97 256.93"/><polygon class="cls-17" points="477.32 263.88 477.32 304.83 436.05 328.46 436.05 287.31 477.32 263.88"/><polygon class="cls-17" points="436.01 287.2 479.1 262.94 479.1 267.06 435.12 292.35 435.15 287.7 436.01 287.2"/><polygon fill='none' points="439.22 293 475 272.52 475 303.24 439.22 323.72 439.22 293"/><polygon fill='#eee' points="435.15 287.7 479.1 262.94 424.19 231.57 380.7 256.6 435.15 287.7"/><polygon class="cls-17" points="435.12 292.35 435.15 287.7 380.7 256.58 380.7 261.63 435.12 292.35"/><polygon class="cls-17" points="373.45 272.15 377.3 269.94 377.3 205.6 373.45 203.36 373.45 272.15"/><polygon fill='#c0c2c1' points="369.66 269.98 370 190.64 373.45 190.64 373.45 272.15 369.66 269.98"/><polygon fill='#c0c2c1' points="384.39 209.75 358.55 194.98 358.55 165.4 384.39 180.19 384.39 209.75"/><polygon fill='#c0c2c1' points="510.09 283.63 484.24 268.86 484.24 239.28 510.09 254.07 510.09 283.63"/><polygon class="cls-19" points="362.24 194.29 376.99 202.74 376.99 180.87 362.24 172.44 362.24 194.29"/><polygon class="cls-20" points="376.99 202.74 379.58 201.22 379.58 182.24 376.99 182.24 376.99 202.74"/><path fill='#eee' d="M370,188.76a6.91,6.91,0,0,1,3,5.47c0,2.06-1.36,3-3,2a6.88,6.88,0,0,1-3-5.47C367,188.69,368.37,187.79,370,188.76Zm0,6c1,.59,1.82,0,1.83-1.2a4.18,4.18,0,0,0-1.81-3.31c-1-.58-1.83,0-1.83,1.21a4.18,4.18,0,0,0,1.81,3.3Z"/><polygon class="cls-21" points="349.32 170.73 358.55 165.4 384.39 180.19 375.16 185.53 349.32 170.73"/><path fill='#eee' d="M489.74,260.81l-3.48-2L496,253l3.67,2.07Z"/><polyline class="cls-17" points="499.68 255.05 493.17 258.76 493.15 263.45 499.68 259.5 499.68 255.05 493.17 258.76 493.15 263.45"/><polygon class="cls-17" points="489.71 338.7 493.26 336.68 493.17 258.76 489.74 260.81 489.71 338.7"/><polygon fill='#c0c2c1' points="485.85 336.48 486.25 258.79 489.74 260.81 489.71 338.7 485.85 336.48"/><polygon class="cls-21" points="486.25 258.79 489.73 256.79 493.17 258.76 489.74 260.81 486.25 258.79"/><polygon class="cls-17" points="375.16 185.53 384.39 180.19 384.39 209.75 375.16 185.53"/><polygon class="cls-17" points="349.32 170.73 358.55 194.98 358.55 176.02 349.32 170.73"/><polygon fill='#eee' points="484.24 239.28 493.47 233.94 519.31 248.74 510.09 254.07 484.24 239.28"/><polygon class="cls-17" points="519.31 248.74 510.09 254.07 510.09 283.63 519.31 248.74"/></symbol>
 <symbol id="system-green" xmlns="http://www.w3.org/2000/svg" viewBox="0 0 178 177" fill="none"><path d="M4.08008 46.27V121.42L99.59 176.77L99.53 101.49L4.08008 46.27Z" fill="#26BC71"/><path d="M173.86 58.95V133.67L99.5898 176.77V101.71L173.86 58.95Z" fill="#26886B"/><path d="M99.5299 101.49L177.06 57.23V64.75L97.9199 110.9L97.9799 102.41L99.5299 101.49Z" fill="#26574F"/><path d="M105.3 112.08L169.67 74.72V130.76L105.3 168.12V112.08Z" stroke="#3FEA9C" stroke-miterlimit="10"/><path d="M97.98 102.41L177.06 57.23L78.26 0L0 45.66L97.98 102.41Z" fill="#3FEA9C"/><path d="M97.92 110.9L97.98 102.41L0 45.6301V54.8502L97.92 110.9Z" fill="#26886B"/></symbol>
    <symbol id="car-back" xmlns="http://www.w3.org/2000/svg" xmlns:xlink="http://www.w3.org/1999/xlink" viewBox="0 0 301.7 189.55"><defs><clipPath id="clip-path"><path fill="#f2f2f2" d="M14.48,59.72a13.76,13.76,0,0,1,7.4-.9c8.88,1.53,14.86,12.85,14.41,22.25-.08,1.71-.74,11-5.86,12.26-4,1-8-3.62-8.45-4.1-6.11-3.71-11-13.17-11-21.13C11,64,12.32,61,14.48,59.72Z"/></clipPath><clipPath id="clip-path-2"><path fill="#f2f2f2" d="M171.15,148.15a13.77,13.77,0,0,1,7.4-.9c8.88,1.54,14.86,12.86,14.41,22.25-.08,1.72-.74,11-5.85,12.26-4,1-8.05-3.62-8.46-4.1-6.11-3.71-11.05-13.17-11-21.12C167.63,152.39,169,149.47,171.15,148.15Z"/></clipPath></defs><g id="Layer_2" data-name="Layer 2"><g id="сцены"><g id="тесла"><path d="M33.71,100.24l17.44-9.88L48.39,80.08,31.53,81.67Q32.61,91,33.71,100.24Z"/><path d="M2.26,45.68A55.52,55.52,0,0,0,.79,62.77a53.55,53.55,0,0,0,.7,5.62q6.4-3.77,12.8-7.54a34,34,0,0,0,7.15,22A34.66,34.66,0,0,0,38.38,94.39,95.62,95.62,0,0,0,44,77.83a96.64,96.64,0,0,0,2.61-19.49A41.6,41.6,0,0,0,25.27,45,41.87,41.87,0,0,0,2.26,45.68Z"/><path fill="#f2f2f2" d="M14.48,59.72a13.76,13.76,0,0,1,7.4-.9c8.88,1.53,14.86,12.85,14.41,22.25-.08,1.71-.74,11-5.86,12.26-4,1-8-3.62-8.45-4.1-6.11-3.71-11-13.17-11-21.13C11,64,12.32,61,14.48,59.72Z"/><g class="cls-2"><g class="cls-3"><path fill="#f2f2f2" d="M14.48,59.72l14-8.55-.29.19-14,8.55.3-.19"/><path fill="#f2f2f2" d="M14.18,59.91l14-8.55A6.19,6.19,0,0,0,26.6,53l-14,8.55a6.16,6.16,0,0,1,1.57-1.64"/><path fill="#f2f2f2" d="M12.61,61.55,34.3,47.6c-1,1.56-.67,5.2-.68,8,0,8,5.6,17.26,11.71,21L22,89.23c-6.11-3.71-11-13.17-11-21.13a11.84,11.84,0,0,1,1.66-6.55"/></g></g><path fill="#27333d" d="M29.7,99.74a13.73,13.73,0,0,1-7-2.27c-9.73-5.91-17.62-21-17.59-33.76,0-8.52,3.58-13.81,9.26-13.81a13.8,13.8,0,0,1,7,2.27C31.1,58.08,39,73.23,39,85.93,38.93,94.45,35.39,99.74,29.7,99.74ZM17.38,57.55c-4.73,0-7.79,4.14-7.81,10.55,0,8.37,5.23,18.38,11.7,22.3a10.38,10.38,0,0,0,5.39,1.7h0c4.73,0,7.79-4.14,7.81-10.55,0-8.52-5.12-18.31-11.7-22.31A10.46,10.46,0,0,0,17.38,57.55Z"/><path fill="#27333d" d="M14.35,51.28h0a12.66,12.66,0,0,1,6.31,2.07C30,59,37.61,73.65,37.58,85.93c0,7.67-3,12.44-7.88,12.44a12.58,12.58,0,0,1-6.32-2.08C14,90.61,6.43,76,6.46,63.72c0-7.67,3-12.44,7.89-12.44M26.66,93.47c4.56,0,9.16-3.68,9.19-11.92,0-9-5.41-19.26-12.36-23.48a11.79,11.79,0,0,0-6.11-1.9c-4.56,0-9.16,3.69-9.19,11.93,0,8.94,5.41,19.26,12.36,23.48a11.77,11.77,0,0,0,6.11,1.89M14.35,48.53c-6.26,0-10.62,5.61-10.64,15.18,0,13.16,8.13,28.8,18.25,34.94a15.06,15.06,0,0,0,7.74,2.47c6.26,0,10.61-5.62,10.63-15.18,0-13.16-8.13-28.8-18.25-34.94a15.05,15.05,0,0,0-7.73-2.47ZM26.66,90.72A9.18,9.18,0,0,1,22,89.23c-6.11-3.71-11-13.17-11-21.13,0-5.78,2.65-9.17,6.43-9.17a9.18,9.18,0,0,1,4.68,1.49c6.12,3.71,11.05,13.16,11,21.12,0,5.78-2.64,9.18-6.43,9.18Z"/><path fill="#6879be" d="M147.06,0a297.57,297.57,0,0,1,30.68,7.46c38.78,11.62,65.13,28.12,72.36,32.78a266.37,266.37,0,0,1,45.28,36.87L240.27,115,36.55,42l44.63-7.81Z"/><path d="M191.62,188c4.18-2.38,10.78-5.86,15-8.24-.42-4.24-3.26-7.4-3.68-11.65l-16.86,1.58Q188.83,178.81,191.62,188Z"/><path d="M156.52,136a30,30,0,0,0-1.9,16.51c.75,4.37,4.21,8.77,5.52,11l17-9.66c-.4,1-3.94,10.71,2,19.9,6.45,10,18.16,10.24,19,10.24l2.73-35.32A41.3,41.3,0,0,0,156.52,136Z"/><path fill="#4f5b97" d="M249.88,125.31q-3.44,13.49-7.14,27.27-3.57,13.23-7.23,26.1l-17.31,2.59c-3.17.48-6.12.73-9.24-.76a13.07,13.07,0,0,1-5.37-4.94,5.75,5.75,0,0,1-1.73-1.35c-2-2.33-1.42-5.81-1.31-6.68.8-6.46-5.92-23-18.34-30.27-2.91-1.71-7.69-4.51-13.32-3.26-7.88,1.75-13,10.45-12.37,14.14a21.22,21.22,0,0,1,.39,4.89,22.67,22.67,0,0,1-.23,2.41q-48-23.13-97.09-50.34-7.79-4.33-15.46-8.69l-2.81-1.6A23.89,23.89,0,0,0,43.2,85c0-13.77-8.31-29.63-19-36.12A17.9,17.9,0,0,0,15,46C8.15,46,1.26,51.6,1.22,64a36.42,36.42,0,0,0,.27,4.39l-.38-.35A83,83,0,0,1,.47,45.68c1.09-10,3-14,4.42-16.16a27.66,27.66,0,0,1,7.37-7.68,125.79,125.79,0,0,1,16,12c3.11,2.75,5.87,5.49,8.33,8.12.45-.16,1.13-.42,2-.71a155,155,0,0,1,14.9-4.39c15.28-3.52,33.5-2.64,33.5-2.64,30.76,1.5,55.58,13.44,67.88,19.35a216.34,216.34,0,0,1,35,21.1c3,2.26,6.89,5.42,14.62,11.74,11.38,9.31,20.14,16.84,28.2,23.79C239.8,116.44,245.75,121.66,249.88,125.31Z"/><path fill="#27333d" d="M117.64,2.07c-5.85.81-11.36,1.82-16.51,2.94A293.37,293.37,0,0,0,36.55,42a138.38,138.38,0,0,1,50.3-7.7L147.06,0A219.82,219.82,0,0,0,117.64,2.07Z"/><path fill="#27cc76" d="M149.64,139.71c-14.66-10-31-20.16-49-30-12.75-7-25.12-13.12-37-18.56l85.73,49.11Z"/><path fill="#6879be" d="M12.26,21.84a81.38,81.38,0,0,1,24.68-14C57.2.79,77.08,2.54,92.84,4c3.5.33,6.38.7,8.29,1L36.55,42a58.88,58.88,0,0,1-11.17-6.57A58.77,58.77,0,0,1,12.26,21.84Z"/><path fill="#4f5b97" d="M299.89,80.84l-61,34.89a24.94,24.94,0,0,0-4.37,6.39,25.92,25.92,0,0,0-2.36,10.41c-.25,6-.75,21.31-.9,42.11A155.85,155.85,0,0,0,269,159.18a154.73,154.73,0,0,0,31-23.38q.21-1,.39-2.13a56.72,56.72,0,0,0,.74-10.17c-.08-5.09.39-6.54.52-10.18C302.05,102.11,300.31,84.91,299.89,80.84Z"/><path fill="#27333d" d="M205.51,108.86c-4.28,0-8.6-.19-12.84-.58-26.57-2.41-45.56-11.83-59.42-18.7l-.3-.15C116.56,81.31,99.59,73,81.63,64.21,70.14,58.58,58.22,52.75,45.75,46.62a133.71,133.71,0,0,1,31-5c1.85-.08,3.72-.12,5.56-.12,37.57,0,65.91,16.61,82.84,26.53l.2.12a214.3,214.3,0,0,1,49.8,40.44C211.94,108.75,208.71,108.86,205.51,108.86Z"/><path d="M82.31,42.44c37.29,0,65.48,16.53,82.32,26.41l.2.11A212.76,212.76,0,0,1,213,107.67c-2.49.13-5,.19-7.47.19-4.25,0-8.54-.19-12.75-.57-26.39-2.4-45.28-11.77-59.07-18.61l-.3-.14C117,80.42,100.07,72.12,82.12,63.34,71.32,58.05,60.18,52.6,48.55,46.88a133,133,0,0,1,28.23-4.31c1.83-.08,3.69-.12,5.53-.13h0m0-2c-1.84,0-3.72.05-5.61.13A135.21,135.21,0,0,0,43,46.39C76,62.59,105,76.7,132.5,90.33c14.06,7,33.13,16.5,60.08,19,4.69.42,9,.58,12.93.58,4.6,0,8.57-.22,11.74-.48a215.17,215.17,0,0,0-51.4-42.14c-16.91-9.91-45.55-26.8-83.55-26.8Z"/><path fill="#27333d" d="M189.76,74.7q13.71,10.93,27.69,22.66,11,9.23,21.46,18.37c9.92-4.74,20.51-10.33,31.52-16.91,9.1-5.45,17.45-11,25-16.35A163.91,163.91,0,0,0,273,59a166,166,0,0,0-25-17.62Z"/><path fill="#30434f" d="M230.05,108.05l59.38-32.82,3,3.56-58,33.12Z"/><path d="M130.41,50,117.27,82.5,106,76.75l13.5-30.29Z"/><path d="M187.58,81.73l-8.7,25.67-22.75-6.76,20.14-26.79Z"/><path d="M75.61,41.12,68.78,59,63,55.91l8.55-14.48Z"/><path fill="#f2f2f2" d="M5.84,28.13,10,30.86a1.76,1.76,0,0,1,0,2.94L1.34,39.69A20.74,20.74,0,0,1,2,35.79,21.12,21.12,0,0,1,5.84,28.13Z"/><path fill="#6879be" d="M297.25,123.25l-49.52,28-3.48-4.3-12.53.59q6.54,2.85,13.12,5.7l2.31,1,1.33-.34,52.63-30.38v-2.42a18.19,18.19,0,0,0-1.84.86A16.11,16.11,0,0,0,297.25,123.25Z"/><path fill="none" stroke="#000" d="M217.25,109.38l18.85,14.85s5.32,22.44,11.63,27q26.94-14.17,53.07-30.11l.32-.19"/><path fill="#30434f" d="M260.68,56.17A104.8,104.8,0,0,1,272.4,66a107.14,107.14,0,0,1,9.35,10.29l-21.9,10.94Z"/><polygon fill="#30434f" points="245.42 45.63 254.87 52.93 254.87 81.73 223.98 57.53 245.42 45.63"/><path fill="#404d82" d="M295.38,77.11l4.51,3.73a189.13,189.13,0,0,1-24.78,17.89,191,191,0,0,1-36.2,17l-4.39-3.82Z"/><path fill="#404d82" d="M144,102.17,48.39,55h0s.11,5.9.63,30.47L155.38,146a22,22,0,0,1,3.82-7.94,23.18,23.18,0,0,1,11.19-7.86h0l-.27-8.58L194,133.77a9.15,9.15,0,0,1,4.35,4.72l3,7.36c2.61.59,30.44,1.67,30.44,1.67l.86-19.14L151.3,105A44.74,44.74,0,0,1,144,102.17Z"/><path fill="none" stroke="#000" d="M244.25,146.93s-24.68,3.16-57.14-4"/><path fill="#404d82" d="M12.19,32.32,39.67,48c-.3,2.62-.6,5.25-.89,7.87A133.8,133.8,0,0,0,20.1,46.07,132.39,132.39,0,0,0,1.34,39.69Z"/><path fill="none" stroke="#000" d="M178.69,106.72l-4.19,10.72v39"/><path fill="#30434f" d="M91.38,10.82q10-2.19,20.79-4.1C120.79,5.22,129.11,4,137.07,3l-21.7,11.31L72.49,21.63Z"/><line fill="none" stroke="#000" x1="190.13" y1="74.82" x2="187.21" y2="81.85"/><path fill="#f2f2f2" d="M171.15,148.15a13.77,13.77,0,0,1,7.4-.9c8.88,1.54,14.86,12.86,14.41,22.25-.08,1.72-.74,11-5.85,12.26-4,1-8.05-3.62-8.46-4.1-6.11-3.71-11.05-13.17-11-21.12C167.63,152.39,169,149.47,171.15,148.15Z"/><g class="cls-12"><g class="cls-3"><path fill="#f2f2f2" d="M171.15,148.15l14-8.55-.3.2-14,8.55.3-.2"/><path fill="#f2f2f2" d="M170.85,148.35l14-8.55a6,6,0,0,0-1.57,1.64l-14,8.55a6.32,6.32,0,0,1,1.57-1.64"/><path fill="#f2f2f2" d="M169.28,150,191,136c-1,1.57-.67,5.2-.68,8,0,7.95,5.6,17.25,11.71,21l-23.35,12.7c-6.11-3.71-11.05-13.17-11-21.12a11.79,11.79,0,0,1,1.66-6.55"/></g></g><path fill="#27333d" d="M186.37,188.18a13.83,13.83,0,0,1-7-2.27c-9.73-5.91-17.62-21.06-17.58-33.76,0-8.52,3.57-13.81,9.26-13.81a13.67,13.67,0,0,1,7,2.27c9.73,5.91,17.62,21,17.59,33.76C195.61,182.89,192.06,188.18,186.37,188.18ZM174.05,146c-4.72,0-7.79,4.14-7.81,10.55,0,8.37,5.23,18.38,11.7,22.31a10.48,10.48,0,0,0,5.39,1.69h0c4.73,0,7.79-4.14,7.81-10.55,0-8.51-5.11-18.31-11.69-22.3A10.44,10.44,0,0,0,174.05,146Z"/><path fill="#27333d" d="M171,139.71h0a12.58,12.58,0,0,1,6.31,2.08c9.36,5.68,17,20.29,16.92,32.57,0,7.68-3,12.44-7.88,12.44a12.6,12.6,0,0,1-6.31-2.07c-9.37-5.69-17-20.3-16.93-32.58,0-7.67,3-12.44,7.89-12.44m12.31,42.2c4.56,0,9.17-3.69,9.19-11.93,0-8.94-5.41-19.26-12.36-23.48a11.77,11.77,0,0,0-6.11-1.89c-4.55,0-9.16,3.68-9.18,11.92,0,8.95,5.4,19.26,12.35,23.48a11.82,11.82,0,0,0,6.11,1.9M171,137c-6.26,0-10.62,5.62-10.64,15.18,0,13.16,8.14,28.8,18.25,34.94a15.09,15.09,0,0,0,7.74,2.47c6.26,0,10.61-5.62,10.64-15.18,0-13.16-8.14-28.8-18.25-34.94A15.11,15.11,0,0,0,171,137Zm12.31,42.19a9.18,9.18,0,0,1-4.68-1.49c-6.11-3.71-11.05-13.17-11-21.12,0-5.79,2.65-9.18,6.43-9.18a9.15,9.15,0,0,1,4.68,1.49c6.12,3.72,11.06,13.17,11,21.13,0,5.78-2.64,9.17-6.43,9.17Z"/><polygon fill="#6879be" points="249.88 121.43 295.71 94.88 297.25 97.97 249.77 125.72 249.88 121.43"/><path fill="#b5222b" d="M251.9,128.48l-2.74,1.06a21.19,21.19,0,0,0-3.78,2.24c-1,.7-2.4,1.63-4,2.8l-10.26,0q1.26-5.19,2.51-10.38l16.22-2.82C251.1,125.7,250.67,124.2,251.9,128.48Z"/><path fill="#991a27" d="M233.66,124.25a25.82,25.82,0,0,1-.8,5.76,25.4,25.4,0,0,1-1.71,4.62c-.8,0-1.61.07-2.44.08a56.68,56.68,0,0,1-13.36-1.47,25.7,25.7,0,0,1-5-1.92c-.43-.23-.84-.46-.92-.86-.21-1.13,2.54-2.45,3-2.68q7.16-1.29,14.49-2.47Z"/><path fill="#2e3760" d="M50.07,71.83q.21,6.19.4,12.38l104.37,60a25.73,25.73,0,0,1,4.79-10Z"/><path fill="#27333d" d="M31.87,49.62l1.25-2a.64.64,0,0,1,1.08,0l2.54,4.32a.62.62,0,0,1-.87.83l-3.8-2.3A.6.6,0,0,1,31.87,49.62Z"/><path fill="#f2f2f2" d="M275,104.18l1.79-1a.11.11,0,0,0,0-.17l-1.56-1.43-4.48,2.13.18,2.44a.11.11,0,0,0,.16.09l1.6-.86a.11.11,0,0,1,.14,0l1.9,3.1a.11.11,0,0,0,.2,0v-4.23A.11.11,0,0,1,275,104.18Z"/><path fill="#4f5b97" d="M166.29,109.3l-2.52,6.53q-1.47,10-2.92,20.11c.24-.24.51-.47.79-.7a15.78,15.78,0,0,1,9.69-3.2q.16-7.56.32-15.12l2-5.48Z"/><polygon points="59.92 42.37 57.85 53.05 44.15 46.95 59.92 42.37"/><path fill="#30434f" d="M297.33,134.5a3,3,0,0,0-1.06.26c-4.93,2.7-43.82,24-47.91,27-.78.56-1.51,1.16-1.51,1.16l-5.06,5.29a53.59,53.59,0,0,1-12.14,3.51,54.6,54.6,0,0,1-25.91-2.19c-.65-4.18-4.38-25.63-21.29-34-3.72-1.84-10.82-5.36-17.73-2.17-7.66,3.53-9.36,12.6-9.57,13.81L45.67,84.45A44.36,44.36,0,0,0,40.9,64.87C37,57.27,27.11,43.5,15.84,44.82A14.86,14.86,0,0,0,9,47.59a16.14,16.14,0,0,1,5.33-1c5.17-.06,9,2.48,11.07,3.91,10.52,7.2,21.81,26.83,16,43.54-.22.63-.43,1.15-.57,1.49l4.51,2.24,114.84,65.69a67.32,67.32,0,0,1-1.36-7.59,32,32,0,0,1-.42-7.38c.12-1.16,1.08-8.81,7-12,6.27-3.39,13.71.62,15.25,1.45a31.8,31.8,0,0,1,11.33,11.2h0a58.62,58.62,0,0,1,7.29,19.3,58,58,0,0,1,1,10.07c1.62.6,2.94,1,3.74,1.24a58.3,58.3,0,0,0,32.26-.12l.68-.22,60.65-34.22a3.43,3.43,0,0,0,1.73-2.61c.24-2.27.48-4.53.73-6.8A3.51,3.51,0,0,0,297.33,134.5Z"/><path fill="none" stroke="#000" d="M51.56,47.31,47.37,58c0,13,.07,24.38.07,37.38"/><path fill="#2e3760" d="M294.31,101.68l-3.15,11.5c-1.53,5.59-4.09,9.87-6.83,11.44l-18.81,10.7c-2.65,1.51-5.14.3-6.72-3.24l-3.61-8.14Z"/><polygon fill="#f2f2f2" points="263.05 121.95 263.05 130.31 286.5 116.72 286.5 108.65 263.05 121.95"/><path fill="#27333d" d="M45.16,58a2.19,2.19,0,0,1-1.61-.47,2.33,2.33,0,0,1-.44-1.44c0-.68.35-1.32,2.33-3.34,2.68-2.72,4.08-4.1,6.56-5.42a21.14,21.14,0,0,1,1.93-.91,2.86,2.86,0,0,1,.39.47,3.08,3.08,0,0,1,.4.84l-.92.91a1,1,0,0,0,.08,1.5A3,3,0,0,1,55,53.25a3.21,3.21,0,0,1-2,2l-.19.08C49.84,57.07,47.06,58,45.16,58Z"/><path d="M53.17,47.9l-.08.07a2,2,0,0,0,.17,3A2,2,0,0,1,54,53a2.16,2.16,0,0,1-1.33,1.34,2.11,2.11,0,0,0-.38.17C49.53,56.09,46.87,57,45.16,57a1.77,1.77,0,0,1-.86-.14h0a1.38,1.38,0,0,1-.19-.76c0-.28.16-.73,2-2.65,2.68-2.72,4-4,6.32-5.24l.7-.35m.94-2.59a23,23,0,0,0-2.58,1.18c-2.67,1.42-4.19,2.94-6.8,5.6-2.09,2.12-2.61,3-2.62,4a3.34,3.34,0,0,0,.7,2.14,3.1,3.1,0,0,0,2.35.79c2,0,5-1,8.13-2.8a4.2,4.2,0,0,0,2.65-2.73,4,4,0,0,0-1.44-4.12l1.31-1.29a4,4,0,0,0-.66-1.72,4.08,4.08,0,0,0-1-1.07Z"/><polyline points="230.05 104.79 230.05 108.05 234.52 111.91 234.52 106.07 230.05 104.79"/><path fill="none" stroke="#000" d="M129.36,42.64l-2.79,5.49q-9.58,19-18.31,37.76v44.67"/><path d="M99.58,84.33l.34-.2a.89.89,0,0,1,.89,0L116.27,93a.52.52,0,0,1,0,.91l-.42.21a.86.86,0,0,1-.81,0L99.58,85.28A.54.54,0,0,1,99.58,84.33Z"/><line fill="none" stroke="#000" x1="41.87" y1="92.44" x2="160.45" y2="160.52"/><path class="cls-17" d="M253.77,125.26,295,101.36h0l-2.52-.83a.06.06,0,0,0-.07,0l-36.64,21.36,0,0Z"/><path fill="#b5222b" d="M300.81,90.93l-5.1,3.95q0,5.18,0,10.36l4-.66.84.57,1.09,1.16c0-2.78,0-5.77-.22-8.93Q301.22,94,300.81,90.93Z"/><path fill="#b5222b" d="M298.54,136.75l-1.61-.8a.17.17,0,0,0-.17,0l-4.55,2.49a.14.14,0,0,0-.09.14l.05,1.36a.18.18,0,0,0,.25.13l6.12-3A.15.15,0,0,0,298.54,136.75Z"/><polyline points="288 71.67 288 74.93 292.47 78.79 292.47 72.95 288 71.67"/><path fill="#b5222b" d="M248.62,165.56l1.24-2.78s0,0,0-.05L257.7,158a.11.11,0,0,1,.17.09v2.61a.1.1,0,0,1-.06.1l-9,4.86A.11.11,0,0,1,248.62,165.56Z"/><polygon fill="#6879be" points="230.62 108.37 230.62 108.89 224.86 105.78 224.86 105.26 230.62 108.37"/><polygon fill="#6879be" points="295.38 73.19 295.37 73.71 230.62 108.89 230.62 108.37 295.38 73.19"/><polygon fill="#404d82" points="295.38 73.19 230.62 108.37 224.86 105.26 289.62 70.08 295.38 73.19"/></g></g></g></symbol>
    <symbol id="car" xmlns="http://www.w3.org/2000/svg" xmlns:xlink="http://www.w3.org/1999/xlink" viewBox="0 0 285.66 216.72"><defs>
<clipPath id="clip-path">
<path fill="#f2f2f2" d="M24.93,94.52a13.77,13.77,0,0,1,7.4-.9c8.88,1.53,14.86,12.86,14.41,22.25-.08,1.72-.74,11-5.85,12.26-4,1-8-3.62-8.46-4.1-6.11-3.71-11-13.17-11-21.12C21.41,98.76,22.77,95.84,24.93,94.52Z"/></clipPath><clipPath id="clip-path-2"><path fill="#f2f2f2" d="M169.77,175.32a13.76,13.76,0,0,1,7.4-.91c8.89,1.54,14.86,12.86,14.41,22.26-.08,1.71-.74,11-5.85,12.25-4,1-8-3.61-8.45-4.1-6.11-3.71-11.06-13.17-11-21.12C166.26,179.55,167.61,176.64,169.77,175.32Z"/></clipPath></defs><g id="Layer_2" data-name="Layer 2"><g id="сцены"><g id="бмв"><path id="шина_1" data-name="шина 1" d="M156.89,182.13l14.7-8.54q9,21,18.08,42l20.27-11.33-25.67-44.47L153,161.59Q155,171.85,156.89,182.13Z"/><path id="шина_2" data-name="шина 2" d="M51.61,111.32Q48.7,123,45.78,134.7L66,123.36Z"/>
<path id="блик_3" data-name="блик 3" fill="#27cc76" d="M132.4,144.28C103.52,126.88,75.25,111.74,48,98.54l0,.14-1.83-1.77q1,2.46,2.09,4.92L51,108.08l2.24,1.28,9.17,12.82,94.15,49,3.61-9.6Q146.7,152.91,132.4,144.28Z"/><path id="блик_2" data-name="блик 2" fill="#26bc71" d="M256.45,177.53l-25.7,9c-.73,3.21-1.46,6.43-2.2,9.63l-20.09-9.87q-8.86-4.37-17.73-8.73c-3.3-5.42-7.52-10-12.18-12.84l-.58-.34c-.37-.22-.75-.42-1.13-.61l-.57-.28-.57-.24-.56-.23a17.4,17.4,0,0,0-1.68-.56l-.56-.14a4.88,4.88,0,0,0-.55-.12,5.3,5.3,0,0,0-.55-.1q-.63-.11-1.26-.15l-.36,0h-.54a11.21,11.21,0,0,0-6.6,2L46.56,97.65A43.89,43.89,0,0,0,44,94c-2.68-3.41-6-7.63-11.37-10-2.49-1.09-6.15-2.68-10.4-1.45-5.67,1.63-8.09,7-8.5,8L6.9,87.18l-6.06-3V70.43H3V55.56a4.78,4.78,0,0,1,2.26-4.05L6,51.06Z"/><path id="крыша" fill="#3fea9c" d="M42,33.27,93.26,4.32c3.54,1.88,8.82,4.7,15.18,8.19,14.21,7.8,24.24,13.71,31.48,17.91,9.53,5.54,23.19,13.39,40.3,22.94l.44.18c-.18,1.38-.37,2.76-.55,4.15l-51.49,34.8Z"/><path id="низ" fill="#12a763" d="M285.61,165.65c0,.67,0,1.34.05,2v.08a28.29,28.29,0,0,1-.76,3,25.43,25.43,0,0,1-1.7,4.07c-.31.61-.65,1.19-1,1.76a28.66,28.66,0,0,1-2,2.82c-4.11,5.06-10.19,9.16-17.89,13.62-23.13,13.38-37.42,21.37-54,17.26a38.76,38.76,0,0,1-5.09-1.63l-5.57-3.19a46.3,46.3,0,0,0-.68-12.38,52.4,52.4,0,0,0-12.65-23.75,25.9,25.9,0,0,0-7-5.29,15.91,15.91,0,0,0-7.07-2.05,11.91,11.91,0,0,0-5.58,1.1A10.8,10.8,0,0,0,163,164c-3.92,2.76-6.25,8.19-6.26,15.34,0,.93,0,1.88.11,2.83L52.69,122.51a39.41,39.41,0,0,0,.09-4.41,38.14,38.14,0,0,0-1.84-10.3L155.83,168a13.19,13.19,0,0,1,3.21-5.5,18.28,18.28,0,0,1,8.75-3.88c10.18-1.43,21.66,6.85,28.37,20.81q9.54-3.21,19.27-6.78c24.95-9.16,48.16-19.14,69.64-29.51,0,1.34.57-.55.54.8q-.19,9.39-.05,18.45v.82C285.57,164.05,285.59,164.85,285.61,165.65Z"/><path id="стекло_2" data-name="стекло 2" fill="#27333d" d="M23.76,30.49,5.57,45.36l17.6-3a66.09,66.09,0,0,0,.63-7.88C23.83,33.1,23.81,31.76,23.76,30.49Z"/><path id="каркас" fill="#27cc76" d="M226.24,91.25c24.6,12.71,42,23.87,47.65,29a48,48,0,0,1,7.25,8.5,24.72,24.72,0,0,1,2.54,4.68,26.07,26.07,0,0,1,1.37,4.54,26.57,26.57,0,0,1,.56,6c-.59.6-1.76,1.79-3.28,3.21-20.68,19.33-45.06,25.69-54,27.91-2.4.59-6.36,1.51-11.38,2.33-.56-.56-1.4-1.36-2.45-2.3a69.57,69.57,0,0,0-16.14-10.64c-6.84-3.45-13.19-7.78-19.8-11.65Q92.81,102.54,5.73,54.43l-.16-9.07L23.8,34.48A28.76,28.76,0,0,1,26.85,33a36.48,36.48,0,0,1,6.9-2.17,6.5,6.5,0,0,1,3.87.4c1.24.54,2.73,1.21,4.39,2,2.48,1.24,4,2.14,8.84,4.93C52.91,39.37,55,40.52,57,41.72c11.94,7,49.13,28.1,71.77,40.85l2.67,1.5Z"/><path id="стекло_3" data-name="стекло 3" d="M21.25,58.86a4.77,4.77,0,0,1,.33-8A34.8,34.8,0,0,1,33,45.51a35.87,35.87,0,0,1,20,.68l70.51,39a1.87,1.87,0,0,1,.66.62l26.87,43a1.81,1.81,0,0,1-2.46,2.5Z"/><path id="стекло_4" data-name="стекло 4" fill="#27333d" d="M22.06,55.73l-.22-1a1.16,1.16,0,0,1,.64-1.3L34.19,48a1.17,1.17,0,0,1,.52-.12L50.34,48a1.19,1.19,0,0,1,.56.14l70.73,39.11a1.18,1.18,0,0,1,.43.4l22.15,35.43a1.16,1.16,0,0,1-1.58,1.61l-120-68.25A1.21,1.21,0,0,1,22.06,55.73Z"/><path id="стекло_5" data-name="стекло 5" d="M93.76,71.34,88.4,95.57s12.46,6.31,12.49,5.82,0-27.77,0-27.77Z"/><path id="стекло_6" data-name="стекло 6" d="M49.76,46.7,34.08,65.31l9.45,5.15c-.16-.09,16-20.44,16-20.44Z"/><polygon id="стекло_7" data-name="стекло 7" points="64.72 53.36 61.88 52.68 55.36 77.38 58.11 78.72 64.72 53.36"/><path id="капот_1" data-name="капот 1" fill="#26bc71" d="M279.92,140.17h0L219.85,85.5l-55,41.07-6.1,2.64,80.6,34V182.4A149.57,149.57,0,0,0,261.21,172a148.67,148.67,0,0,0,18.86-12.92Z"/><g id="диск_2" data-name="диск 2"><path fill="#f2f2f2" d="M24.93,94.52a13.77,13.77,0,0,1,7.4-.9c8.88,1.53,14.86,12.86,14.41,22.25-.08,1.72-.74,11-5.85,12.26-4,1-8-3.62-8.46-4.1-6.11-3.71-11-13.17-11-21.12C21.41,98.76,22.77,95.84,24.93,94.52Z"/><g class="cls-7"><g class="cls-8"><path fill="#f2f2f2" d="M24.93,94.52l14-8.55-.3.2-14,8.55.3-.2"/><path fill="#f2f2f2" d="M24.63,94.72l14-8.55a6,6,0,0,0-1.57,1.64l-14,8.55a6.32,6.32,0,0,1,1.57-1.64"/><path fill="#f2f2f2" d="M23.06,96.36l21.69-14c-1,1.57-.67,5.2-.67,8,0,7.95,5.59,17.25,11.7,21L32.43,124c-6.11-3.71-11-13.17-11-21.12a11.87,11.87,0,0,1,1.66-6.55"/></g></g></g><g id="диск_1" data-name="диск 1"><path fill="#f2f2f2" d="M169.77,175.32a13.76,13.76,0,0,1,7.4-.91c8.89,1.54,14.86,12.86,14.41,22.26-.08,1.71-.74,11-5.85,12.25-4,1-8-3.61-8.45-4.1-6.11-3.71-11.06-13.17-11-21.12C166.26,179.55,167.61,176.64,169.77,175.32Z"/><g class="cls-9"><g class="cls-8"><path fill="#f2f2f2" d="M169.77,175.32l14-8.56-.3.2-14,8.55a2.9,2.9,0,0,1,.29-.19"/><path fill="#f2f2f2" d="M169.48,175.51l14-8.55a6.32,6.32,0,0,0-1.57,1.64l-14,8.55a6.19,6.19,0,0,1,1.58-1.64"/><path fill="#f2f2f2" d="M167.9,177.15l21.69-14c-1,1.56-.66,5.19-.67,8,0,8,5.6,17.25,11.71,21l-23.35,12.7c-6.11-3.71-11.06-13.17-11-21.12a11.87,11.87,0,0,1,1.66-6.55"/></g></g></g><g id="шина_1-2" data-name="шина 1"><path fill="#27333d" d="M185,215.34a13.77,13.77,0,0,1-7-2.27c-9.74-5.91-17.63-21.06-17.59-33.76,0-8.52,3.57-13.81,9.26-13.81a13.73,13.73,0,0,1,7,2.27c9.73,5.91,17.62,21,17.58,33.76C194.23,210.05,190.68,215.34,185,215.34Zm-12.31-42.2c-4.73,0-7.8,4.15-7.81,10.55,0,8.37,5.22,18.38,11.69,22.31a10.49,10.49,0,0,0,5.4,1.69h0c4.72,0,7.79-4.14,7.8-10.55,0-8.51-5.11-18.31-11.69-22.3A10.41,10.41,0,0,0,172.68,173.14Z"/><path fill="#27333d" d="M169.64,166.88h0A12.5,12.5,0,0,1,176,169c9.37,5.68,17,20.3,16.93,32.58,0,7.67-3,12.43-7.89,12.43a12.53,12.53,0,0,1-6.31-2.07c-9.36-5.68-17-20.3-16.92-32.58,0-7.67,3-12.43,7.88-12.43M182,209.07c4.55,0,9.16-3.69,9.18-11.92,0-9-5.4-19.27-12.36-23.49a11.74,11.74,0,0,0-6.1-1.89c-4.56,0-9.17,3.68-9.19,11.92,0,8.95,5.4,19.27,12.36,23.49a11.84,11.84,0,0,0,6.11,1.89m-12.32-44.95c-6.26,0-10.61,5.62-10.64,15.18,0,13.16,8.14,28.81,18.25,34.94a15.14,15.14,0,0,0,7.74,2.48c6.26,0,10.61-5.62,10.64-15.19,0-13.16-8.13-28.8-18.25-34.94a15.18,15.18,0,0,0-7.74-2.47ZM182,206.32a9.07,9.07,0,0,1-4.68-1.5c-6.11-3.71-11.06-13.17-11-21.12,0-5.78,2.65-9.18,6.44-9.18a9.07,9.07,0,0,1,4.67,1.5c6.12,3.71,11.06,13.16,11,21.12,0,5.78-2.65,9.18-6.43,9.18Z"/></g><path id="стекло_1" data-name="стекло 1" d="M155.49,127.68a7,7,0,0,0,3.43,2.61,6.59,6.59,0,0,0,4.6-.26q13.36-7.56,27-15.67C202.9,107,215.44,99.08,227,91.73q-3.39-3.12-6.89-6.23c-13.18-11.72-26.4-22.34-39.48-32-6,4.44-12.71,9-20.15,13.48a254,254,0,0,1-31.06,15.9C143,107.15,153.23,124.68,155.49,127.68Z"/><g id="стекло_1.1" data-name="стекло 1.1"><path fill="#27333d" d="M162.5,127.09a3.26,3.26,0,0,1-1-.16,3.5,3.5,0,0,1-1.82-1.37L147.11,106,136.3,88.08c.14-.65-.16-2.2,1-2.83,8.61-4.83,17.52-9.26,26-14.86,6-3.94,12-8.3,18.22-12.37a3.4,3.4,0,0,1,.63-.38h0a3.1,3.1,0,0,1,2,.33c.82.41,9.38,7.28,20.94,16.86l16.79,14.36a2.3,2.3,0,0,1-.2,3.66c-7.83,5.35-16.3,10.78-25.41,16.16C184.5,115.94,173.18,121.92,162.5,127.09Z"/></g><path id="капот_1.1" data-name="капот 1.1" fill="#27cc76" d="M179,130.3l70.25,27.42,8.3-4.72-54-36.89Z"/><path id="капот_1.2" data-name="капот 1.2" fill="#27cc76" d="M209.42,112.58l51.12,38.69,5.42-3.11-35.73-47.85Z"/><polygon id="тень_капот_1" data-name="тень капот 1" fill="#12a763" points="203.54 116.11 203.59 117.14 256.78 153.46 257.5 153 203.54 116.11"/><path id="тень_капот_2" data-name="тень капот 2" fill="#12a763" d="M230.23,100.31v1.19l35.15,46.95.58-.29Z"/><path id="бампер" fill="#27cc76" d="M239.37,182.4a92.14,92.14,0,0,1-12.58,3.52,102.62,102.62,0,0,1-14.34.67c-1.8,0-3.55-.13-5.23-.26l-6.84,4.09a38.58,38.58,0,0,0,15.09,3.11c5.15,0,9.33-1.05,16.66-3.74,8.66-3.17,18.07-6.61,30.36-13.92a166.16,166.16,0,0,0,21-14.81l2-3.52.12-5.49-5.56,7.07c-7.57,5.35-14.25,9.53-19.49,12.62C247.81,179.29,241.53,181.62,239.37,182.4Z"/><polygon fill="#425460" points="59.59 37.78 60.37 37.33 57.82 41.27 57.04 41.72 59.59 37.78"/><polygon fill="#425460" points="57.06 33.08 57.85 32.63 86.36 48.86 85.58 49.31 57.06 33.08"/><polygon fill="#425460" points="88.53 54.25 89.31 53.8 89.3 59.18 88.51 59.63 88.53 54.25"/><polygon fill="#425460" points="85.58 49.31 86.36 48.86 89.32 50.54 88.54 50.99 85.58 49.31"/><polygon fill="#41525e" points="122.62 70.39 123.41 69.94 129.6 82.12 128.81 82.57 122.62 70.39"/><polygon fill="#425460" points="88.54 50.99 89.32 50.54 123.41 69.94 122.62 70.39 88.54 50.99"/><path fill="#27333d" d="M123.75,78.1l-2.35-6.35a1.35,1.35,0,0,0-.61-.72l-31.58-18a1.29,1.29,0,0,0-.68-.18,1.37,1.37,0,0,0-1.38,1.37v3l-.2-.12V52.57a1.38,1.38,0,0,0-.7-1.2l-26-14.79a1.38,1.38,0,0,0-.68-.18,1.41,1.41,0,0,0-1.16.63l-1.84,2.85L53.27,38l3.94-3.25,64.37,36.64,3.93,7.72Z"/><path fill="#27333d" d="M57,36.68,56.14,38l-.45-.26L57,36.68m0-3.6L50.85,38.2,57,41.72l2.55-3.94,26,14.79V58l3,1.68,0-5.38,31.58,18,2.52,6.83,6.18,3.52-6.19-12.18L88.54,51l-3-1.68L57.06,33.08Z"/><polygon fill="#425460" points="110.21 9.02 110.99 8.57 108.44 12.51 107.66 12.96 110.21 9.02"/><polygon fill="#425460" points="107.68 4.32 108.47 3.87 136.99 20.1 136.2 20.55 107.68 4.32"/><polygon fill="#425460" points="139.15 25.49 139.94 25.04 139.92 30.42 139.13 30.87 139.15 25.49"/><polygon fill="#425460" points="136.2 20.55 136.99 20.1 139.94 21.78 139.16 22.23 136.2 20.55"/><polygon fill="#41525e" points="173.25 41.63 174.03 41.18 180.22 53.36 179.43 53.81 173.25 41.63"/><polygon fill="#425460" points="139.16 22.23 139.94 21.78 174.03 41.18 173.25 41.63 139.16 22.23"/><path fill="#27333d" d="M174.37,49.34,172,43a1.35,1.35,0,0,0-.61-.72l-31.58-18a1.36,1.36,0,0,0-.68-.18,1.39,1.39,0,0,0-.69.18,1.42,1.42,0,0,0-.69,1.19v3l-.21-.12V23.81a1.38,1.38,0,0,0-.7-1.2l-26-14.78a1.3,1.3,0,0,0-.68-.19,1.41,1.41,0,0,0-1.16.63l-1.84,2.85-3.32-1.89L107.83,6,172.2,42.62l3.93,7.72Z"/><path fill="#27333d" d="M107.64,7.92l-.88,1.36L106.31,9l1.33-1.1m0-3.6-6.21,5.12L107.66,13,110.21,9l26,14.79v5.38l3,1.68V25.49l31.58,18,2.52,6.83,6.18,3.52-6.18-12.18-34.09-19.4-3-1.68L107.68,4.32Z"/><g id="деталь_6" data-name="деталь 6"><path fill="#27333d" d="M204.38,120.19c1.61.91,1.62,2.39,0,3.3l-11.19,6.41a6.45,6.45,0,0,1-5.79,0c-1.6-.91-1.62-2.39,0-3.3l11.19-6.41A6.43,6.43,0,0,1,204.38,120.19Z"/><path fill="#425460" d="M203.31,121.46c1,.57,1,1.5,0,2.07l-11.19,6.41a4,4,0,0,1-3.62,0c-1-.57-1-1.5,0-2.07l11.19-6.4A4.07,4.07,0,0,1,203.31,121.46Z"/></g><g id="деталь_7" data-name="деталь 7"><path fill="#27333d" d="M230.71,104.75c1.6.91,1.61,2.39,0,3.31l-11.19,6.41a6.45,6.45,0,0,1-5.79,0c-1.6-.91-1.61-2.39,0-3.3l11.19-6.41A6.48,6.48,0,0,1,230.71,104.75Z"/><path fill="#425460" d="M229.63,106c1,.57,1,1.5,0,2.07l-11.18,6.41a4.07,4.07,0,0,1-3.63,0c-1-.57-1-1.5,0-2.07L226,106A4.07,4.07,0,0,1,229.63,106Z"/></g><polygon id="зеркало_блик_1" data-name="зеркало блик 1" fill="#425460" points="183.52 61.62 211.83 84.41 212.45 92.49 183.52 74.83 183.52 61.62"/><polygon id="зеркало_блик_2" data-name="зеркало блик 2" fill="#425460" points="182.31 61.1 182.31 74.36 170.02 66.59 180.84 59.95 182.31 61.1"/><path id="стекло_8" data-name="стекло 8" d="M135.63,107.38v15l10.25,4.72c-.18-1-.41-2.13-.71-3.24A38.33,38.33,0,0,0,135.63,107.38Z"/><polyline id="дверь_1" data-name="дверь 1" fill="none" points="148.65 129.29 145.07 147.72 141.71 163.57 140.14 172.17"/><path id="низ_2" data-name="низ 2" fill="#12a763" d="M22.21,82.58a11.7,11.7,0,0,0-3.59,1.63,11.22,11.22,0,0,0-3.11,3.25.05.05,0,0,0,0,0A16.73,16.73,0,0,0,13.21,94a17.58,17.58,0,0,0,0,5.42v0a2.93,2.93,0,0,0,.05.29h0l-.51.29h0c-4-4.92-7.93-9.83-11.9-14.75A3.82,3.82,0,0,1,0,82.89L.84,70.43l16.7,9.5c1.29.73,2.58,1.47,3.87,2.19C21.67,82.28,22,82.43,22.21,82.58Z"/><path id="часть_слева" data-name="часть слева" fill="#26bc71" d="M93.26,4.32c-2.21-1.19-4.09-2.09-5.48-2.71A18.64,18.64,0,0,0,84.54.35a13.11,13.11,0,0,0-7.67.51L23.76,30.49l0,4A33.83,33.83,0,0,1,28,32.63l.42-.15a17.51,17.51,0,0,1,12.41.3l1.2.49Z"/><path id="блик_крыло" data-name="блик крыло" fill="#27cc76" d="M3,57.82l142.88,82-.47.27a6.87,6.87,0,0,1-6.8,0L3,63Z"/><path id="фара_4" data-name="фара 4" fill="#b5222b" d="M3,61.16l3.34,1.9c.5,3.48,1,7,1.48,10.45a.19.19,0,0,1-.3.18L3.07,70.48A.18.18,0,0,1,3,70.33Q3,65.74,3,61.16Z"/><polyline id="дверь_2" data-name="дверь 2" fill="none" points="91.02 92.91 90.2 106.97 91.02 120.22 90.2 131.67 90.74 144.13"/><polyline id="дверь_3" data-name="дверь 3" fill="none" points="38.12 68.43 33.5 78.97 35.81 91.79 39.4 98.44"/><g id="радиатор_1" data-name="радиатор 1"><polygon fill="#425460" points="254.73 165.81 254.76 175.3 253.56 175.99 253.53 166.49 254.73 165.81"/><polygon fill="#425460" points="257.52 164.22 257.55 173.71 256.35 174.4 256.32 164.9 257.52 164.22"/><polygon fill="#425460" points="251.94 167.4 251.97 176.89 250.77 177.57 250.74 168.08 251.94 167.4"/><path fill="#1e272f" d="M258.59,163.61a4,4,0,0,1,1.8-.56c.66,0,1.08.52,1.09,1.39v5.27A3.28,3.28,0,0,1,260,172.3l-10,5.66c-1.07.62-2,.37-2.44-.61l-1.43-3.51a4.14,4.14,0,0,1,1-3.74l3.55-2,0,9.49,1.2-.68,0-9.49,1.59-.91,0,9.5,1.2-.69,0-9.49,1.59-.91,0,9.5,1.2-.69,0-9.49Z"/></g><g id="радиатор_2" data-name="радиатор 2"><polygon fill="#33414a" points="274.96 154.13 274.99 163.09 273.85 163.74 273.83 154.77 274.96 154.13"/><g class="cls-8"><path fill="#1e272f" d="M278.32,152.22c.9,0,1.31,1.11.94,2.46s-.92,3.39-1.33,4.85a5.5,5.5,0,0,1-2.29,3.2l-9.41,5.35c-.76.43-1.38,0-1.38-.88v-5a3.9,3.9,0,0,1,1-2.49,7.17,7.17,0,0,1,1.7-1.39l1-.58,0,9,1.14-.64,0-9,1.5-.86,0,9,1.13-.64,0-9,1.5-.86,0,9,1.14-.64,0-9Z"/><polygon fill="#33414a" points="269.69 157.13 269.72 166.1 268.58 166.74 268.55 157.78 269.69 157.13"/></g><polygon fill="#33414a" points="272.33 155.63 272.35 164.6 271.22 165.24 271.19 156.27 272.33 155.63"/></g><g id="фара_1" data-name="фара 1"><path fill="#27333d" d="M217,177.42a65.16,65.16,0,0,0,15.78-3.83l.06,0c3.52-1.32,6.33,1.06,8.3,3.63l1.61,1.64a1.6,1.6,0,0,1-.48,2.58c-2.05,1-3.87,1.7-5.4,2.28a34.54,34.54,0,0,1-8.72,2.38l-.84.09c-3.08.33-5.61.42-7.4.45a7,7,0,0,1-4-6.21A5.87,5.87,0,0,1,217,177.42Z"/></g><path id="фара_1.1" data-name="фара 1.1" fill="#425460" d="M219.4,177.22a7.34,7.34,0,0,0-1.51,4.65,7.45,7.45,0,0,0,2,4.75l-5.8-.05-4.88-6.17a1.69,1.69,0,0,1,1.27-2.74Z"/><path id="фара_свет_1" data-name="фара свет 1" fill="#425460" d="M227.11,183.32c-1.54.87-2.78.26-2.77-1.37a5.89,5.89,0,0,1,2.79-4.52,2,2,0,0,1,2-.21c-.58-.86-1.74-1-3.09-.25a7.4,7.4,0,0,0-3.53,5.7c0,2.05,1.56,2.82,3.49,1.72a6.78,6.78,0,0,0,2-1.75A5.13,5.13,0,0,1,227.11,183.32Z"/><path id="фара_свет_1.1" data-name="фара свет 1.1" fill="#425460" d="M234.4,181.64a4.72,4.72,0,0,1,2.25-3.63,2.27,2.27,0,0,1,1-.31c-.45-.55-1.27-.63-2.23-.09a5.52,5.52,0,0,0-2.62,4.25c0,1.52,1.16,2.09,2.6,1.27l.13-.09C234.84,183,234.4,182.51,234.4,181.64Z"/><path fill="#27333d" d="M285.63,152.05l-1.81,2.3-2.38,3a.37.37,0,0,1-.66-.24l.24-3.72.08-1.2,0-.56a9.93,9.93,0,0,1,.62-2.35s0-.08,0-.12a10.62,10.62,0,0,1,2-3.17l1.84-2.05v8.08Z"/><path id="зеркало_тень" data-name="зеркало тень" fill="#167043" d="M139.93,117.9v0a.83.83,0,0,1-.12.16h0a.83.83,0,0,1-.18.13l-.13.06-.2.07h0l-14.22,3.71-.33.07h-.13l-.23,0h-.44l-.33,0h-.08l-.28,0h0l-.32-.08-.12,0-.18-.07a1.75,1.75,0,0,1-.34-.15l-.37-.22a1.74,1.74,0,0,1-1-1.43l0,6.49a1.74,1.74,0,0,0,1,1.43l.37.21a2.68,2.68,0,0,0,.34.16h0l.16.06.12,0h0l.26.07h.09l.17,0h1l.16,0,.13,0h0l.29-.07,14.22-3.71.09,0,.11,0,.13,0,0,0a.58.58,0,0,0,.15-.11h0l.07-.08a.43.43,0,0,0,0-.07v0h0s0,0,0,0,0,0,0-.07a.17.17,0,0,0,0-.07h0l0-6.48A.33.33,0,0,1,139.93,117.9Z"/><path id="зеркало" fill="#27cc76" d="M139.62,117.25c.59.33.41.89-.34,1.09l-14.22,3.71a4,4,0,0,1-2.83-.29l-.37-.22c-1.32-.75-1.4-2-.16-2.75l6.78-4.4a6.39,6.39,0,0,1,5.94-.1Z"/><path id="деталь_1" data-name="деталь 1" fill="#167043" d="M233.76,192a3.4,3.4,0,0,1,.07,1.13,7.4,7.4,0,0,1-4,5.37l-6.23,2.68a5,5,0,0,1-.66.21c.31,1.31,1.52,1.83,3.1,1.15l6.22-2.68a7.32,7.32,0,0,0,4-5.37C236.47,192.61,235.38,191.61,233.76,192Z"/><path id="деталь_2" data-name="деталь 2" fill="#167043" d="M285.64,167l-.36.1h0c-.12.43-.3,1-.54,1.67a27.57,27.57,0,0,1-1.53,3.49,25.91,25.91,0,0,1-1.72,2.89,2.55,2.55,0,0,0,1.29.45,27.35,27.35,0,0,0,1.42-2.93,28.05,28.05,0,0,0,1.11-3.33c.16-.63.28-1.18.36-1.59C285.65,167.49,285.65,167.23,285.64,167Z"/><g id="деталь_3" data-name="деталь 3"><path fill="#167043" d="M278.88,175.58c1-.56,1.81-.12,1.82,1a3.82,3.82,0,0,1-1.78,3.11l-28.13,16c-1,.57-1.81.13-1.82-1a3.82,3.82,0,0,1,1.78-3.11Z"/></g><g id="деталь_4" data-name="деталь 4"><path fill="#1d9157" d="M285.61,165.39l-15.34,10.87.71-2.69a3.07,3.07,0,0,1,1.17-1.74l13.41-9.47C285.57,163.37,285.59,164.38,285.61,165.39Z"/></g><g id="деталь_5" data-name="деталь 5"><path fill="#1d9157" d="M260,179.08c.55-.28,1-.2,1.26.23l.83,1.62-22.62,11.79,1.29-2.06a9.34,9.34,0,0,1,3.42-3.33Z"/></g><g id="номер"><polygon fill="#eff5fa" points="272.9 171.56 272.92 178.99 260.11 186.28 260.09 178.84 272.9 171.56"/></g><path id="фара_2" data-name="фара 2" fill="#425460" d="M285.62,147c-.67-.52-1.65-.38-2.6.51a6,6,0,0,0-1.23,1.71.69.69,0,0,0-.05.13h0a4,4,0,0,1,.58-.7c1.13-1.06,2.32-.79,2.65.6a5.12,5.12,0,0,1-1.44,4.43,1.75,1.75,0,0,1-1.72.58,1.6,1.6,0,0,0,2,.13l1.81-2.3Z"/><g id="шина"><path fill="#27333d" d="M41.17,134.55a13.72,13.72,0,0,1-7-2.28c-9.15-5.54-16.85-19.56-17.54-31.9,0-.18,0-.34,0-.49,0-.44,0-.87,0-1.3,0-.88,0-1.7.12-2.52,0-.53.12-1,.19-1.53s.16-.94.27-1.39l.18-.69c.11-.41.23-.82.38-1.22s.31-.79.47-1.16.35-.69.53-1a8,8,0,0,1,7.13-4.34,13.73,13.73,0,0,1,7,2.27c.42.25.83.53,1.25.82l.42.3c.28.2.55.42.83.63l.4.33.39.33.38.33c.67.59,1.29,1.19,1.9,1.84l.4.42c.3.33.6.66.89,1l.69.83a47,47,0,0,1,6.81,11.65c.07.16.12.31.18.45l0,.13a46.69,46.69,0,0,1,1.73,5.29l.14.59c.1.4.19.8.28,1.19,0,.2.08.38.12.57l.12.62c0,.19.06.38.1.57a34.08,34.08,0,0,1,.41,3.4c0,.2,0,.4,0,.6,0,.63.06,1.25.06,1.87,0,.28,0,.56,0,.83s0,.57,0,.85c0,.52-.08,1-.14,1.55a.19.19,0,0,0,0,.08c0,.22-.07.45-.1.67l-.12.71s-.11.49-.15.69-.12.46-.17.68c-.11.42-.25.84-.41,1.28-.06.17-.13.34-.2.51s-.13.32-.19.45-.17.37-.25.52l-.19.37a11.35,11.35,0,0,1-.62,1l-.12.17a9,9,0,0,1-1.89,1.94,7.65,7.65,0,0,1-4.65,1.5ZM28.85,92.35c-4.72,0-7.79,4.15-7.81,10.55,0,8.37,5.23,18.38,11.7,22.31a10.49,10.49,0,0,0,5.4,1.69c4.72,0,7.79-4.14,7.81-10.55,0-8.51-5.13-18.31-11.71-22.3A10.38,10.38,0,0,0,28.85,92.35Z"/><path fill="#27333d" d="M25.82,86.08a12.58,12.58,0,0,1,6.32,2.08c.36.22.74.47,1.17.77.14.09.26.18.4.29s.52.38.78.59l.38.31.05,0a3.47,3.47,0,0,1,.29.25l.1.08a2.91,2.91,0,0,1,.27.24l.07.06q.89.78,1.8,1.74l.36.39c.28.31.57.63.85,1s.45.53.68.8A45.57,45.57,0,0,1,46,106c0,.13.1.26.16.4l0,.14a45.83,45.83,0,0,1,1.67,5.09l.15.61c.09.38.18.77.26,1.15,0,.18.08.35.12.55l.11.61c0,.17.07.35.1.54.19,1.15.33,2.25.4,3.29,0,.18,0,.37,0,.57,0,.56.05,1.16.05,1.78,0,.27,0,.52,0,.78v0c0,.26,0,.51,0,.76,0,.46-.07.93-.14,1.47a.34.34,0,0,0,0,.1l-.09.62c0,.21-.07.43-.11.64v0c0,.19-.09.39-.14.61l-.15.62c-.1.38-.23.76-.37,1.16-.06.15-.11.3-.17.44a.49.49,0,0,0,0,.11l-.15.32,0,.07c-.06.14-.12.27-.19.4l-.17.33a9.13,9.13,0,0,1-.53.87l0,.05,0,.06-.08.1A7.16,7.16,0,0,1,45,132a6.3,6.3,0,0,1-3.83,1.22,12.66,12.66,0,0,1-6.31-2.07c-8.79-5.33-16.2-18.85-16.88-30.78v-.06c0-.14,0-.29,0-.44,0-.42,0-.83,0-1.24v-.07c0-.76,0-1.55.11-2.33,0-.42.1-.88.18-1.42s.16-.92.26-1.32c.05-.21.1-.42.15-.61.12-.44.24-.81.36-1.15s.26-.68.42-1,.29-.58.47-.9a6.59,6.59,0,0,1,5.94-3.67m12.32,42.2c4.55,0,9.16-3.69,9.19-11.93,0-8.95-5.42-19.26-12.37-23.48A11.77,11.77,0,0,0,28.85,91c-4.55,0-9.16,3.68-9.18,11.92,0,8.95,5.4,19.26,12.36,23.48a11.76,11.76,0,0,0,6.11,1.9M25.82,83.33a9.35,9.35,0,0,0-8.32,5,12.2,12.2,0,0,0-.59,1.14c-.18.39-.35.81-.51,1.24s-.3.89-.43,1.36l-.18.71c-.11.49-.21,1-.29,1.51s-.15,1-.2,1.6q-.12,1.23-.12,2.58v.07c0,.44,0,.89,0,1.34,0,.17,0,.35,0,.52h0c.71,12.73,8.58,27.17,18.2,33a15.11,15.11,0,0,0,7.74,2.47,9,9,0,0,0,5.47-1.76A9.91,9.91,0,0,0,48.78,132c.07-.08.12-.16.18-.24a11.94,11.94,0,0,0,.71-1.16l.2-.38c.09-.19.19-.38.27-.58l.21-.47c.08-.19.15-.39.22-.59.17-.45.32-.92.45-1.4l.18-.72.15-.7s0,0,0,0c0-.25.09-.51.13-.76s.08-.51.11-.77c0,0,0,0,0,0,.07-.53.12-1.08.16-1.64,0-.29,0-.58,0-.88s0-.58,0-.88c0-.64,0-1.29-.05-1.95,0-.2,0-.41,0-.62-.09-1.16-.24-2.34-.44-3.53,0-.2-.06-.4-.1-.6l-.12-.61c0-.21-.08-.41-.13-.62-.08-.4-.18-.81-.28-1.22L50.5,111a47.46,47.46,0,0,0-1.78-5.45c-.08-.19-.15-.4-.24-.59a47.9,47.9,0,0,0-7-12c-.24-.3-.48-.58-.73-.87s-.6-.69-.91-1l-.42-.45q-.95-1-2-1.89l-.41-.35q-.21-.2-.42-.36l-.44-.35c-.29-.24-.58-.46-.87-.67l-.45-.32q-.65-.47-1.32-.87a15.15,15.15,0,0,0-7.74-2.47Zm12.32,42.19A9.15,9.15,0,0,1,33.46,124c-6.11-3.71-11.06-13.17-11-21.12,0-5.78,2.65-9.18,6.43-9.18a9.18,9.18,0,0,1,4.68,1.49c6.12,3.72,11.06,13.17,11,21.13,0,5.78-2.65,9.17-6.43,9.17Z"/></g><path id="дверь_1.1" data-name="дверь 1.1" fill="none" d="M45.78,96.91l98.14,56.24"/><path id="дверь_1.2" data-name="дверь 1.2" fill="none" d="M50.34,107.72l92,52.73"/><path id="шина_2.1" data-name="шина 2.1" d="M51.84,108.58a0,0,0,0,1,0,0c0-.1-.07-.2-.11-.31h0c-.25-.72-.52-1.43-.81-2.14-.48-1.2-1-2.38-1.58-3.54h0c-.83-1.67-1.73-3.31-2.71-4.87l-.13-.2h0l-.16-.25A47,47,0,0,0,40.63,90l-.25-.26-.15-.15A37.13,37.13,0,0,0,36.1,86l0,0,0,0c-.47-.35-1-.68-1.46-1-.33-.22-.66-.43-1-.62C29,81.68,24.84,81,21.41,82.12s-6,3.81-7.47,7.95h0a23.7,23.7,0,0,0-1.22,6.81c0,.42,0,.86,0,1.29,0,.61,0,1.2,0,1.81h0l.51-.29,1.95-1.13h0v-.06c0-.9.05-1.76.12-2.58,0-.55.12-1.09.2-1.6s.18-1,.29-1.51l.18-.71c.13-.47.27-.92.43-1.36s.33-.85.51-1.24a12.2,12.2,0,0,1,.59-1.14c3.14-5.44,9.17-6.76,16.06-2.57q.67.4,1.32.87l.45.32c.29.21.58.43.87.67l.44.35q.21.17.42.36l.41.35q1,.89,2,1.89l.42.45c.31.33.61.67.91,1s.49.57.73.87a47.9,47.9,0,0,1,7,12c.09.19.16.4.24.59A47.46,47.46,0,0,1,50.5,111l.15.61c.1.41.2.82.28,1.22,0,.21.09.41.13.62l.12.61c0,.2.07.4.1.6.2,1.19.35,2.37.44,3.53,0,.21,0,.42,0,.62,0,.66.05,1.31.05,1.95,0,.3,0,.59,0,.88s0,.59,0,.88c0,.56-.09,1.11-.16,1.64,0,0,0,0,0,0,0,.26-.07.52-.11.77s-.08.51-.13.76c0,0,0,0,0,0,0,.24-.1.47-.15.7s-.12.48-.18.72c-.13.48-.28.95-.45,1.4-.07.2-.14.39-.22.59l-.21.47c-.08.2-.18.39-.27.58l-.2.38a11.94,11.94,0,0,1-.71,1.16c-.06.08-.11.16-.18.24a9.91,9.91,0,0,1-2.14,2.19l6.41-3.59a23.84,23.84,0,0,0,1.25-7.13c0-.33,0-.66,0-1A42.9,42.9,0,0,0,51.84,108.58Z"/></g></g></g>
</symbol>

</svg>
  